<svg width="184" height="58" viewBox="0 0 184 58" fill="none" xmlns="http://www.w3.org/2000/svg">
<g clip-path="url(#clip0)">
<path fill-rule="evenodd" clip-rule="evenodd" d="M113.882 44.9814C103.283 53.0357 87.9198 57.3329 74.6926 57.3329C56.1458 57.3329 39.449 50.2609 26.8172 38.4987C25.8248 37.5738 26.714 36.3132 27.9049 37.0335C41.5371 45.2106 58.3927 50.1299 75.8041 50.1299C87.5467 50.1299 100.464 47.6252 112.342 42.4276C114.136 41.6418 115.637 43.639 113.882 44.9814Z" fill="#FF9900"/>
<path fill-rule="evenodd" clip-rule="evenodd" d="M118.289 39.7836C116.939 37.9992 109.333 38.9405 105.919 39.358C104.879 39.4889 104.721 38.5558 105.657 37.8846C111.715 33.4892 121.656 34.7579 122.815 36.2312C123.974 37.7127 122.513 47.9852 116.82 52.8882C115.947 53.6412 115.113 53.2401 115.502 52.2415C116.781 48.9511 119.647 41.5762 118.289 39.7836Z" fill="#FF9900"/>
<path fill-rule="evenodd" clip-rule="evenodd" d="M106.157 6.8546V2.58191C106.157 1.93528 106.634 1.50146 107.205 1.50146H125.76C126.355 1.50146 126.832 1.94347 126.832 2.58191V6.24071C126.824 6.8546 126.324 7.65675 125.434 8.92546L115.82 23.0777C119.392 22.9877 123.164 23.5361 126.403 25.4187C127.134 25.8443 127.332 26.4664 127.388 27.0803V31.6395C127.388 32.2615 126.721 32.99 126.022 32.6135C120.313 29.5277 112.731 29.1921 106.419 32.6462C105.776 33.0064 105.101 32.2861 105.101 31.664V27.334C105.101 26.6383 105.109 25.4514 105.784 24.3955L116.923 7.92687H107.229C106.634 7.92687 106.157 7.49305 106.157 6.8546Z" fill="black"/>
<path fill-rule="evenodd" clip-rule="evenodd" d="M38.4725 33.5139H32.8275C32.2877 33.473 31.8589 33.0556 31.8192 32.5235V2.65566C31.8192 2.05814 32.3035 1.58339 32.9069 1.58339H38.1708C38.7187 1.60793 39.1553 2.04176 39.195 2.58198V6.48634H39.2983C40.6718 2.71295 43.2521 0.953125 46.7297 0.953125C50.2627 0.953125 52.4699 2.71295 54.0578 6.48634C55.4234 2.71295 58.5278 0.953125 61.8545 0.953125C64.2204 0.953125 66.8087 1.95991 68.3887 4.21903C70.1751 6.73189 69.8099 10.3825 69.8099 13.5829L69.8019 32.4335C69.8019 33.031 69.3176 33.5139 68.7142 33.5139H63.0771C62.5134 33.473 62.0609 33.0065 62.0609 32.4335V16.6033C62.0609 15.3427 62.172 12.1996 61.9021 11.0046C61.4813 8.9992 60.2189 8.43442 58.5834 8.43442C57.2178 8.43442 55.7887 9.37572 55.2091 10.8818C54.6295 12.3879 54.6851 14.9089 54.6851 16.6033V32.4335C54.6851 33.031 54.2007 33.5139 53.5973 33.5139H47.9603C47.3886 33.473 46.944 33.0065 46.944 32.4335L46.9361 16.6033C46.9361 13.2719 47.468 8.36894 43.4586 8.36894C39.4015 8.36894 39.5603 13.1491 39.5603 16.6033V32.4335C39.5603 33.031 39.0759 33.5139 38.4725 33.5139" fill="black"/>
<path fill-rule="evenodd" clip-rule="evenodd" d="M142.806 0.953125C151.182 0.953125 155.716 8.36894 155.716 17.7983C155.716 26.9085 150.706 34.136 142.806 34.136C134.58 34.136 130.103 26.7202 130.103 17.4791C130.103 8.18068 134.636 0.953125 142.806 0.953125ZM142.853 7.05112C138.693 7.05112 138.431 12.8954 138.431 16.5378C138.431 20.1884 138.376 27.9807 142.806 27.9807C147.181 27.9807 147.387 21.6945 147.387 17.8638C147.387 15.3428 147.284 12.3306 146.545 9.9405C145.91 7.86146 144.648 7.05112 142.853 7.05112Z" fill="black"/>
<path fill-rule="evenodd" clip-rule="evenodd" d="M166.577 33.5139H160.956C160.392 33.473 159.939 33.0065 159.939 32.4335L159.932 2.55743C159.979 2.00902 160.448 1.58339 161.019 1.58339H166.251C166.744 1.60793 167.149 1.95172 167.26 2.41828V6.98563H167.363C168.943 2.90121 171.158 0.953125 175.056 0.953125C177.589 0.953125 180.058 1.89443 181.646 4.47277C183.123 6.86285 183.123 10.8818 183.123 13.7712V32.5726C183.059 33.0965 182.591 33.5139 182.035 33.5139H176.374C175.858 33.473 175.429 33.0801 175.374 32.5726V16.3495C175.374 13.0836 175.739 8.30345 171.841 8.30345C170.467 8.30345 169.205 9.25294 168.578 10.6935C167.784 12.5188 167.68 14.336 167.68 16.3495V32.4335C167.673 33.031 167.18 33.5139 166.577 33.5139" fill="black"/>
<path fill-rule="evenodd" clip-rule="evenodd" d="M91.3659 19.247C91.3659 21.5143 91.4214 23.4051 90.3099 25.4186C89.4127 27.0557 87.9836 28.0625 86.4037 28.0625C84.2362 28.0625 82.9658 26.3599 82.9658 23.8471C82.9658 18.8868 87.277 17.9864 91.3659 17.9864V19.247ZM97.0585 33.432C96.6854 33.7757 96.1455 33.8003 95.7247 33.5711C93.8509 31.9668 93.5095 31.222 92.4853 29.6913C89.3889 32.949 87.1897 33.9231 83.1802 33.9231C78.4244 33.9231 74.7325 30.9027 74.7325 24.8539C74.7325 20.131 77.2097 16.9142 80.7507 15.3426C83.8154 13.9511 88.0948 13.7056 91.3659 13.3209V12.5678C91.3659 11.1845 91.4691 9.54747 90.6751 8.35244C89.9923 7.28017 88.6744 6.83816 87.5073 6.83816C85.3556 6.83816 83.4422 7.97591 82.9738 10.3333C82.8785 10.8571 82.5054 11.3728 81.9893 11.3973L76.5189 10.7916C76.0584 10.6852 75.5424 10.3005 75.6773 9.57203C76.9318 2.72919 82.9341 0.666504 88.3012 0.666504C91.0483 0.666504 94.637 1.41955 96.8045 3.56407C99.5515 6.2079 99.2895 9.73573 99.2895 13.5746V22.6438C99.2895 25.3695 100.385 26.5646 101.417 28.0379C101.775 28.5618 101.854 29.192 101.393 29.5849C100.242 30.5753 98.1938 32.417 97.0664 33.4483L97.0585 33.4319" fill="black"/>
<path fill-rule="evenodd" clip-rule="evenodd" d="M17.3613 19.2472C17.3613 21.5145 17.4169 23.4053 16.3054 25.4189C15.4082 27.0559 13.987 28.0627 12.3991 28.0627C10.2316 28.0627 8.96926 26.3602 8.96926 23.8473C8.96926 18.8871 13.2804 17.9867 17.3613 17.9867V19.2472ZM23.054 33.4322C22.6808 33.776 22.1409 33.8005 21.7201 33.5714C19.8464 31.967 19.5129 31.2222 18.4808 29.6916C15.3844 32.9493 13.1931 33.9233 9.17568 33.9233C4.42784 33.9233 0.728027 30.903 0.728027 24.8541C0.728027 20.1312 3.2131 16.9144 6.74619 15.3429C9.81085 13.9514 14.0903 13.7058 17.3613 13.3211V12.5681C17.3613 11.1848 17.4646 9.54771 16.6785 8.35268C15.9878 7.28041 14.6698 6.83841 13.5107 6.83841C11.3591 6.83841 9.43769 7.97615 8.96926 10.3335C8.87398 10.8574 8.50082 11.373 7.9927 11.3976L2.51442 10.7919C2.05393 10.6855 1.5458 10.3008 1.67283 9.57228C2.93522 2.72943 8.92956 0.666748 14.2967 0.666748C17.0438 0.666748 20.6324 1.41979 22.7999 3.56432C25.547 6.20814 25.285 9.73598 25.285 13.5748V22.6441C25.285 25.3698 26.3806 26.5648 27.4128 28.0381C27.778 28.562 27.8574 29.1923 27.3969 29.5851C26.2457 30.5756 24.1973 32.4172 23.0699 33.4486L23.054 33.4322" fill="black"/>
</g>
<defs>
<clipPath id="clip0">
<rect width="182.395" height="56.6664" fill="white" transform="translate(0.728027 0.666504)"/>
</clipPath>
</defs>
</svg>
