<svg xmlns="http://www.w3.org/2000/svg" width="250" height="250" viewBox="0 0 250 250" fill="none"><path fill-rule="evenodd" clip-rule="evenodd" d="M176.452 31.25C190.421 31.25 203.859 36.7708 213.744 46.6771C223.64 56.5625 229.171 69.8958 229.171 83.8542V166.146C229.171 195.208 205.525 218.75 176.452 218.75H73.5462C44.4733 218.75 20.8379 195.208 20.8379 166.146V83.8542C20.8379 54.7917 44.3691 31.25 73.5462 31.25H176.452ZM193.025 99.3752L193.858 98.5418C196.348 95.521 196.348 91.146 193.743 88.1252C192.296 86.5731 190.306 85.6252 188.233 85.4168C186.046 85.3022 183.962 86.0418 182.389 87.5002L135.421 125C129.379 130.011 120.723 130.011 114.587 125L67.7122 87.5002C64.4726 85.1043 59.9935 85.4168 57.2956 88.2293C54.4831 91.0418 54.1706 95.521 56.556 98.646L57.9206 100L105.316 136.979C111.15 141.563 118.223 144.063 125.629 144.063C133.014 144.063 140.212 141.563 146.035 136.979L193.025 99.3752Z" fill="#D6B1FF"></path></svg>