<svg xmlns="http://www.w3.org/2000/svg" width="250" height="250" viewBox="0 0 250 250" fill="none"><path fill-rule="evenodd" clip-rule="evenodd" d="M125.313 20.8335C148.854 20.9377 171.354 30.3127 187.813 46.771C204.375 63.3335 213.646 85.7294 213.542 108.959V109.479C212.917 141.042 195.209 170.104 173.125 192.813C160.625 205.625 146.771 216.979 131.667 226.563C127.604 230 121.667 230 117.604 226.563C95.2085 211.979 75.4168 193.646 59.3752 172.292C45.3127 153.75 37.2918 131.459 36.4585 108.229C36.6668 59.7919 76.4585 20.7294 125.313 20.8335ZM125.313 138.125C132.709 138.125 139.792 135.313 145.001 130.209C150.417 124.896 153.449 117.823 153.449 110.417C153.449 95.0005 140.834 82.6047 125.313 82.6047C109.792 82.6047 97.2925 95.0005 97.2925 110.417C97.2925 125.636 109.584 137.917 125.001 138.125H125.313Z" fill="#D6B1FF"></path></svg>