<svg xmlns="http://www.w3.org/2000/svg" width="2235" height="2235" viewBox="0 0 2235 2235" fill="none"><g clip-path="url(#clip0)"><path d="M45.9248 2235H803.682C1163 2235 1454.28 1943.72 1454.28 1584.4H696.524C337.208 1584.4 45.9248 1875.68 45.9248 2235Z" fill="white"></path><path d="M45.9248 688.869V1645.63C405.241 1645.63 696.524 1354.35 696.524 995.034V38.2701C337.208 38.2701 45.9248 329.553 45.9248 688.869Z" fill="white"></path><path d="M2189.08 0H1431.32C1072 0 780.719 291.283 780.719 650.599H1538.48C1897.79 650.599 2189.08 359.316 2189.08 0Z" fill="white"></path><path d="M2189.08 1546.13V589.366C1829.76 589.366 1538.48 880.65 1538.48 1239.97V2196.73C1897.79 2196.73 2189.08 1905.45 2189.08 1546.13Z" fill="white"></path></g><defs><clipPath id="clip0"><rect width="2235" height="2235" fill="white"></rect></clipPath></defs></svg>