<svg width="174" height="62" viewBox="0 0 174 62" fill="none" xmlns="http://www.w3.org/2000/svg">
<g clip-path="url(#clip0)">
<path fill-rule="evenodd" clip-rule="evenodd" d="M153.186 28.9471L142.141 48.1327L132.718 48.1703L153.186 12.0587L173.578 48.1703H164.006L153.186 28.9452V28.9471ZM123.446 39.8184H134L129.1 48.1703H115.343L115.381 38.0008V12.2807H123.485L123.447 39.8184H123.446ZM94.4998 12.2826C104.563 12.3202 112.705 20.3354 112.667 30.2434C112.63 40.1156 104.489 48.1327 94.4233 48.1327C84.3971 48.0951 76.2556 40.0799 76.2556 30.17C76.2929 20.2978 84.4344 12.2826 94.4998 12.2826ZM94.4625 39.7826C99.8515 39.7826 104.184 35.5135 104.184 30.2434C104.224 24.9752 99.8516 20.6684 94.4998 20.6684C89.1461 20.6308 84.774 24.9376 84.774 30.2077C84.7367 35.4759 89.1088 39.7826 94.4606 39.7826H94.4625ZM61.2546 27.3929C61.1426 25.9065 60.7638 23.9404 60.1984 22.0495C59.035 18.1437 57.0124 14.553 54.2812 11.5451C52.8481 9.98717 51.2284 8.53842 48.8138 6.8319C46.9731 5.91598 45.1633 4.93831 43.3874 3.90052C42.2192 3.23259 40.8234 2.41413 38.9779 1.82146C36.7897 1.30067 34.5529 1.01497 32.305 0.969142C30.1218 0.893882 27.9329 1.08203 25.8224 1.48844C23.5981 1.85909 21.7508 2.45176 19.3007 3.04632C13.7586 5.4584 9.46296 9.09534 5.76822 13.9214C-7.12231 32.0685 4.52545 57.4913 26.0482 60.496C29.5918 60.9796 33.1354 60.7933 36.4887 60.0144L38.8641 59.3841C38.9388 59.3464 39.0526 59.3088 39.1272 59.3088L41.8423 58.2702C41.9916 58.195 42.1054 58.1573 42.2566 58.084L43.3874 57.5647C45.5571 56.485 47.5937 55.1526 49.4557 53.5947C47.7608 55.1475 45.9175 56.5271 43.9528 57.7133L44.0647 57.7886C44.4435 57.6757 44.7813 57.5647 45.1582 57.4913C45.1582 57.4913 45.1582 58.084 45.0836 57.973C44.4809 58.4189 45.4232 58.0106 46.6287 57.3784C47.836 56.7481 49.0041 55.9673 50.0584 55.0773C51.6054 53.7791 52.962 52.368 54.884 50.0688C56.8433 46.6162 59.2953 43.6096 60.4261 39.5644C60.803 38.4881 61.1408 37.2275 61.3684 35.9274C61.5924 34.6292 61.7454 33.2933 61.7454 31.9198C61.708 30.5463 61.5569 29.1352 61.2546 27.3929ZM33.3612 57.8996C39.9576 56.8591 45.4979 53.1864 50.0211 48.176C51.2657 46.3566 52.2454 44.6858 53.4509 42.8683C54.9586 39.1561 54.8467 35.854 55.3356 33.5172C55.9402 29.2838 54.507 25.8708 53.3016 22.2339C51.4542 18.0024 49.0041 14.849 44.7067 12.3993C33.8501 5.64467 19.0749 7.53558 12.0269 17.6317C11.9896 17.6317 11.7992 17.8914 11.4223 18.4107C11.9131 16.3335 13.1577 15.1086 14.4005 13.9195C18.0952 10.8771 22.3927 8.46316 27.2929 7.27781C32.835 6.68326 38.336 7.27781 43.2735 9.6899C50.663 13.9195 55.5632 20.565 56.806 28.4296V35.7054C55.2609 47.6191 45.0836 56.6747 33.3612 57.8996ZM60.4634 30.806C60.1984 13.3645 42.9731 1.59944 26.1994 3.97578C21.2992 5.19875 15.9455 7.64847 12.1388 11.0634C10.2915 12.2864 9.42564 14.5517 7.57827 16.3692C0.188795 27.2443 1.47262 41.1617 10.6684 49.6247C11.848 50.8006 13.1075 51.892 14.4378 52.891C6.74975 48.2494 3.28081 41.2332 2.07535 32.7006C2.07535 29.6564 2.67808 26.6497 3.31813 23.6074C7.61746 10.2826 21.148 0.596605 35.8878 3.04632C38.3379 3.64087 40.788 4.27117 43.2773 4.86573C46.3674 6.0887 49.4202 7.90811 51.8703 10.3221C54.3204 12.7323 56.1678 15.7765 58.0152 18.7813C59.2579 21.1953 59.8625 24.2377 60.4653 26.6497C60.5772 28.0232 60.5772 29.4344 60.4653 30.8079L60.4634 30.806Z" fill="black"/>
<path fill-rule="evenodd" clip-rule="evenodd" d="M45.1598 31.0674C45.1598 38.5652 38.903 44.6518 31.1758 44.6518C23.4504 44.6518 17.1918 38.5652 17.1918 31.0674C17.1918 23.5715 23.4486 17.4849 31.1758 17.4849C38.903 17.4849 45.1598 23.5715 45.1598 31.0693V31.0674Z" fill="white"/>
<path fill-rule="evenodd" clip-rule="evenodd" d="M45.2364 28.7662C45.0479 27.7276 44.7456 26.911 44.4452 25.7614C43.2379 23.2364 41.467 21.2703 39.1289 19.5995C30.3847 13.7744 18.36 19.3775 17.0799 29.325C16.591 33.2592 17.9849 37.0448 20.4723 39.9404C19.7184 39.1596 18.8899 38.3449 18.3245 37.4154L18.2499 37.4907C18.3245 37.7127 18.6268 37.8613 18.7014 38.0833C18.7014 38.0833 18.3991 38.0833 18.4757 38.0457C18.2499 37.788 18.4383 38.1962 18.7761 38.7513C19.0784 39.3082 19.4553 39.8294 19.9069 40.311C20.5488 41.0166 21.2262 41.6469 22.357 42.5011C24.0178 43.3534 25.4863 44.4673 27.4083 44.9866C27.9364 45.1371 28.5391 45.2838 29.1437 45.3948C29.7838 45.5077 30.3865 45.5454 31.0658 45.5454C31.7058 45.5454 32.385 45.4701 33.2136 45.3196C34.0679 45.2181 34.9124 45.0451 35.7383 44.8022C37.583 44.2423 39.2824 43.2786 40.715 41.9799C41.4315 41.3139 42.4504 40.4597 43.2397 39.3458C43.8816 38.0852 43.9563 37.453 44.2586 36.8961C44.559 36.3392 44.9359 35.7089 45.2009 34.8547C45.4169 33.8413 45.543 32.8106 45.5779 31.7747C45.5405 30.7361 45.4659 29.7332 45.2382 28.768L45.2364 28.7662ZM36.2645 21.8648C37.5465 22.6061 37.7349 22.7171 37.0557 22.2355C38.0372 22.4575 38.64 23.0144 39.2427 23.5713C40.7131 25.2421 41.9186 27.2083 42.5213 29.4717C42.8609 32.0324 42.5959 34.5932 41.5043 36.8585C39.545 40.3092 36.4157 42.6102 32.6836 43.2405C32.2693 43.2405 31.8178 43.2405 31.4016 43.2782C32.4578 43.0919 33.137 42.424 35.0591 41.7184C37.1303 40.9771 39.4685 37.5264 40.6012 35.5207C43.9171 30.0644 39.9966 25.0182 36.2645 21.8648ZM29.1792 43.3139C23.4505 42.7212 19.0392 38.0081 18.4365 32.5517C18.9627 35.596 20.7727 37.9328 23.2228 40.0119C24.0905 40.5688 25.3706 41.3477 26.2383 41.9047C27.7088 42.4616 28.5746 43.0561 30.0077 43.3158H29.1792V43.3139ZM44.5945 33.4059C44.3332 34.5574 44.0682 35.6694 43.8033 36.8209C43.2379 38.232 42.4093 39.6789 41.2785 40.8285C40.1477 41.9799 38.7146 42.8699 37.2834 43.7241C36.1525 44.3168 34.7194 44.614 33.5513 44.9094C32.8721 44.9847 32.0809 44.6874 31.4016 44.6517C39.7708 44.4278 45.4995 36.5988 44.2567 28.8414C43.6521 26.578 42.4467 24.6099 40.9762 22.6438C40.3735 21.7896 39.2035 21.2703 38.3377 20.4161C33.0979 17.114 26.1637 17.782 22.2058 22.1245C21.6509 22.6951 21.1341 23.3023 20.6589 23.942C22.7713 20.8243 26.1637 18.6362 30.2335 18.004C31.6666 17.9663 33.137 18.2279 34.5683 18.4875C40.9016 20.4161 45.6133 26.578 44.5945 33.4078V33.4059Z" fill="#D7DF23"/>
</g>
<defs>
<clipPath id="clip0">
<rect width="173.541" height="60.208" fill="white" transform="translate(0.229614 0.895752)"/>
</clipPath>
</defs>
</svg>
