<svg xmlns="http://www.w3.org/2000/svg" width="250" height="250" viewBox="0 0 250 250" fill="none"><path fill-rule="evenodd" clip-rule="evenodd" d="M52.1716 111.402C52.1716 104.958 52.2492 98.5137 52.3272 92.0396C52.3667 88.7574 52.4063 85.4675 52.436 82.166C52.436 46.6941 74.6414 20.8314 105.306 20.8314H144.694C175.359 20.8314 197.564 46.6941 197.564 82.166C197.829 96.3752 197.917 110.584 197.917 124.896C197.917 139.207 197.829 153.621 197.564 167.83C197.564 203.302 175.359 229.165 144.694 229.165H105.306C74.6414 229.165 52.436 203.302 52.436 167.728C52.2597 154.336 52.0835 140.638 52.0835 126.736L52.1716 111.402ZM138.333 204.584V206.251C138.333 213.267 132.466 218.751 125 218.751C117.711 218.751 111.667 213.267 111.667 206.251V204.584C111.667 197.751 117.711 192.084 125 192.084C132.466 192.084 138.333 197.751 138.333 204.584ZM73.091 87.9527C73.0353 92.1608 72.9798 96.3496 72.9798 100.538L72.9169 110.505C72.9169 119.542 73.0428 128.446 73.1687 137.15C73.1687 160.273 89.0297 177.084 110.933 177.084H139.067C160.971 177.084 176.832 160.273 176.832 137.216C177.021 127.98 177.084 118.612 177.084 109.309C177.084 100.007 177.021 90.7707 176.832 81.5348C176.832 58.4781 160.971 41.6673 139.067 41.6673H110.933C89.0297 41.6673 73.1687 58.4781 73.1687 81.5348C73.1475 83.6807 73.1192 85.8192 73.091 87.9527Z" fill="#D6B1FF"></path></svg>