<svg xmlns="http://www.w3.org/2000/svg" width="1180" height="273" viewBox="0 0 1180 273" fill="none"><g filter="url(#filter0_d)"><rect x="20" y="30" width="1140" height="233" rx="10" fill="white"></rect><path d="M102.565 117.85C99.205 117.85 96.58 117.033 94.69 115.4C92.8 113.743 91.7967 111.398 91.68 108.365C91.6567 107.688 91.645 106.615 91.645 105.145C91.645 103.675 91.6567 102.602 91.68 101.925C91.7967 98.9617 92.8117 96.675 94.725 95.065C96.6617 93.455 99.275 92.65 102.565 92.65C104.782 92.65 106.707 93.0117 108.34 93.735C109.997 94.4583 111.257 95.38 112.12 96.5C113.007 97.62 113.473 98.775 113.52 99.965C113.52 100.175 113.438 100.35 113.275 100.49C113.135 100.63 112.96 100.7 112.75 100.7H107.64C107.407 100.7 107.22 100.665 107.08 100.595C106.94 100.525 106.823 100.397 106.73 100.21C106.427 99.5333 105.948 98.95 105.295 98.46C104.642 97.9467 103.732 97.69 102.565 97.69C99.7883 97.69 98.33 99.16 98.19 102.1C98.1667 102.753 98.155 103.768 98.155 105.145C98.155 106.498 98.1667 107.513 98.19 108.19C98.33 111.27 99.8233 112.81 102.67 112.81C104.047 112.81 105.143 112.46 105.96 111.76C106.8 111.037 107.22 109.94 107.22 108.47V107.805H103.93C103.673 107.805 103.463 107.723 103.3 107.56C103.137 107.373 103.055 107.152 103.055 106.895V104.305C103.055 104.048 103.137 103.838 103.3 103.675C103.463 103.488 103.673 103.395 103.93 103.395H112.75C113.007 103.395 113.217 103.488 113.38 103.675C113.543 103.838 113.625 104.048 113.625 104.305V108.295C113.625 110.278 113.17 111.993 112.26 113.44C111.35 114.863 110.055 115.96 108.375 116.73C106.718 117.477 104.782 117.85 102.565 117.85ZM123.94 117.85C121.887 117.85 120.23 117.162 118.97 115.785C117.71 114.385 117.08 112.437 117.08 109.94V100.175C117.08 99.9183 117.162 99.7083 117.325 99.545C117.489 99.3817 117.699 99.3 117.955 99.3H122.33C122.587 99.3 122.797 99.3817 122.96 99.545C123.147 99.7083 123.24 99.9183 123.24 100.175V109.73C123.24 112.017 124.255 113.16 126.285 113.16C127.265 113.16 128.035 112.857 128.595 112.25C129.155 111.643 129.435 110.803 129.435 109.73V100.175C129.435 99.9183 129.517 99.7083 129.68 99.545C129.867 99.3817 130.077 99.3 130.31 99.3H134.685C134.942 99.3 135.152 99.3817 135.315 99.545C135.479 99.7083 135.56 99.9183 135.56 100.175V116.625C135.56 116.858 135.479 117.068 135.315 117.255C135.152 117.418 134.942 117.5 134.685 117.5H130.625C130.392 117.5 130.182 117.418 129.995 117.255C129.832 117.068 129.75 116.858 129.75 116.625V115.295C128.537 116.998 126.6 117.85 123.94 117.85ZM140.552 117.5C140.296 117.5 140.086 117.418 139.922 117.255C139.759 117.092 139.677 116.882 139.677 116.625V100.175C139.677 99.9183 139.759 99.7083 139.922 99.545C140.086 99.3817 140.296 99.3 140.552 99.3H144.577C144.834 99.3 145.044 99.3817 145.207 99.545C145.394 99.7083 145.487 99.9183 145.487 100.175V101.505C146.117 100.735 146.922 100.117 147.902 99.65C148.906 99.1833 150.037 98.95 151.297 98.95C153.351 98.95 155.019 99.65 156.302 101.05C157.586 102.427 158.227 104.363 158.227 106.86V116.625C158.227 116.858 158.146 117.068 157.982 117.255C157.819 117.418 157.609 117.5 157.352 117.5H152.942C152.709 117.5 152.499 117.418 152.312 117.255C152.149 117.068 152.067 116.858 152.067 116.625V107.07C152.067 105.973 151.799 105.133 151.262 104.55C150.726 103.943 149.956 103.64 148.952 103.64C147.972 103.64 147.202 103.943 146.642 104.55C146.082 105.133 145.802 105.973 145.802 107.07V116.625C145.802 116.858 145.721 117.068 145.557 117.255C145.394 117.418 145.184 117.5 144.927 117.5H140.552ZM167.628 117.85C166.391 117.85 165.259 117.617 164.233 117.15C163.229 116.66 162.436 116.007 161.853 115.19C161.293 114.35 161.013 113.428 161.013 112.425C161.013 110.815 161.666 109.52 162.973 108.54C164.303 107.56 166.123 106.883 168.433 106.51L172.808 105.845V105.355C172.808 104.468 172.621 103.815 172.248 103.395C171.874 102.975 171.244 102.765 170.358 102.765C169.821 102.765 169.378 102.858 169.028 103.045C168.678 103.232 168.316 103.488 167.943 103.815C167.616 104.095 167.371 104.282 167.208 104.375C167.138 104.562 167.009 104.655 166.823 104.655H163.008C162.774 104.655 162.576 104.585 162.413 104.445C162.273 104.282 162.214 104.095 162.238 103.885C162.261 103.255 162.564 102.555 163.148 101.785C163.754 101.015 164.664 100.35 165.878 99.79C167.114 99.23 168.631 98.95 170.428 98.95C173.298 98.95 175.421 99.5917 176.798 100.875C178.174 102.135 178.863 103.838 178.863 105.985V116.625C178.863 116.858 178.781 117.068 178.618 117.255C178.454 117.418 178.244 117.5 177.988 117.5H173.928C173.694 117.5 173.484 117.418 173.298 117.255C173.134 117.068 173.053 116.858 173.053 116.625V115.4C172.539 116.123 171.816 116.718 170.883 117.185C169.973 117.628 168.888 117.85 167.628 117.85ZM169.273 113.86C170.346 113.86 171.209 113.51 171.863 112.81C172.539 112.11 172.878 111.083 172.878 109.73V109.24L169.903 109.765C167.803 110.138 166.753 110.873 166.753 111.97C166.753 112.553 166.998 113.02 167.488 113.37C167.978 113.697 168.573 113.86 169.273 113.86ZM183.687 117.5C183.454 117.5 183.244 117.418 183.057 117.255C182.894 117.068 182.812 116.858 182.812 116.625V93.525C182.812 93.2683 182.894 93.0583 183.057 92.895C183.244 92.7317 183.454 92.65 183.687 92.65H187.747C188.004 92.65 188.214 92.7317 188.377 92.895C188.54 93.0583 188.622 93.2683 188.622 93.525V105.25L193.487 99.895C193.534 99.8483 193.615 99.7667 193.732 99.65C193.872 99.5333 194.012 99.4517 194.152 99.405C194.292 99.335 194.455 99.3 194.642 99.3H199.332C199.542 99.3 199.717 99.3817 199.857 99.545C200.02 99.685 200.102 99.86 200.102 100.07C200.102 100.327 200.009 100.525 199.822 100.665L193.522 107.455L200.697 116.17C200.884 116.357 200.977 116.532 200.977 116.695C200.977 116.928 200.895 117.127 200.732 117.29C200.592 117.43 200.405 117.5 200.172 117.5H195.377C195.074 117.5 194.84 117.453 194.677 117.36C194.537 117.267 194.362 117.115 194.152 116.905L188.622 110.255V116.625C188.622 116.858 188.54 117.068 188.377 117.255C188.214 117.418 188.004 117.5 187.747 117.5H183.687ZM208.37 117.85C207.133 117.85 206.001 117.617 204.975 117.15C203.971 116.66 203.178 116.007 202.595 115.19C202.035 114.35 201.755 113.428 201.755 112.425C201.755 110.815 202.408 109.52 203.715 108.54C205.045 107.56 206.865 106.883 209.175 106.51L213.55 105.845V105.355C213.55 104.468 213.363 103.815 212.99 103.395C212.616 102.975 211.986 102.765 211.1 102.765C210.563 102.765 210.12 102.858 209.77 103.045C209.42 103.232 209.058 103.488 208.685 103.815C208.358 104.095 208.113 104.282 207.95 104.375C207.88 104.562 207.751 104.655 207.565 104.655H203.75C203.516 104.655 203.318 104.585 203.155 104.445C203.015 104.282 202.956 104.095 202.98 103.885C203.003 103.255 203.306 102.555 203.89 101.785C204.496 101.015 205.406 100.35 206.62 99.79C207.856 99.23 209.373 98.95 211.17 98.95C214.04 98.95 216.163 99.5917 217.54 100.875C218.916 102.135 219.605 103.838 219.605 105.985V116.625C219.605 116.858 219.523 117.068 219.36 117.255C219.196 117.418 218.986 117.5 218.73 117.5H214.67C214.436 117.5 214.226 117.418 214.04 117.255C213.876 117.068 213.795 116.858 213.795 116.625V115.4C213.281 116.123 212.558 116.718 211.625 117.185C210.715 117.628 209.63 117.85 208.37 117.85ZM210.015 113.86C211.088 113.86 211.951 113.51 212.605 112.81C213.281 112.11 213.62 111.083 213.62 109.73V109.24L210.645 109.765C208.545 110.138 207.495 110.873 207.495 111.97C207.495 112.553 207.74 113.02 208.23 113.37C208.72 113.697 209.315 113.86 210.015 113.86ZM224.429 117.5C224.173 117.5 223.963 117.418 223.799 117.255C223.636 117.092 223.554 116.882 223.554 116.625V100.175C223.554 99.9183 223.636 99.7083 223.799 99.545C223.963 99.3817 224.173 99.3 224.429 99.3H228.454C228.711 99.3 228.921 99.3817 229.084 99.545C229.271 99.7083 229.364 99.9183 229.364 100.175V101.505C229.994 100.735 230.799 100.117 231.779 99.65C232.783 99.1833 233.914 98.95 235.174 98.95C237.228 98.95 238.896 99.65 240.179 101.05C241.463 102.427 242.104 104.363 242.104 106.86V116.625C242.104 116.858 242.023 117.068 241.859 117.255C241.696 117.418 241.486 117.5 241.229 117.5H236.819C236.586 117.5 236.376 117.418 236.189 117.255C236.026 117.068 235.944 116.858 235.944 116.625V107.07C235.944 105.973 235.676 105.133 235.139 104.55C234.603 103.943 233.833 103.64 232.829 103.64C231.849 103.64 231.079 103.943 230.519 104.55C229.959 105.133 229.679 105.973 229.679 107.07V116.625C229.679 116.858 229.598 117.068 229.434 117.255C229.271 117.418 229.061 117.5 228.804 117.5H224.429ZM246.919 117.5C246.686 117.5 246.476 117.418 246.289 117.255C246.126 117.068 246.044 116.858 246.044 116.625V93.525C246.044 93.2683 246.126 93.0583 246.289 92.895C246.476 92.7317 246.686 92.65 246.919 92.65H251.049C251.306 92.65 251.516 92.7317 251.679 92.895C251.843 93.0583 251.924 93.2683 251.924 93.525V116.625C251.924 116.882 251.843 117.092 251.679 117.255C251.516 117.418 251.306 117.5 251.049 117.5H246.919ZM261.519 117.85C260.282 117.85 259.151 117.617 258.124 117.15C257.121 116.66 256.327 116.007 255.744 115.19C255.184 114.35 254.904 113.428 254.904 112.425C254.904 110.815 255.557 109.52 256.864 108.54C258.194 107.56 260.014 106.883 262.324 106.51L266.699 105.845V105.355C266.699 104.468 266.512 103.815 266.139 103.395C265.766 102.975 265.136 102.765 264.249 102.765C263.712 102.765 263.269 102.858 262.919 103.045C262.569 103.232 262.207 103.488 261.834 103.815C261.507 104.095 261.262 104.282 261.099 104.375C261.029 104.562 260.901 104.655 260.714 104.655H256.899C256.666 104.655 256.467 104.585 256.304 104.445C256.164 104.282 256.106 104.095 256.129 103.885C256.152 103.255 256.456 102.555 257.039 101.785C257.646 101.015 258.556 100.35 259.769 99.79C261.006 99.23 262.522 98.95 264.319 98.95C267.189 98.95 269.312 99.5917 270.689 100.875C272.066 102.135 272.754 103.838 272.754 105.985V116.625C272.754 116.858 272.672 117.068 272.509 117.255C272.346 117.418 272.136 117.5 271.879 117.5H267.819C267.586 117.5 267.376 117.418 267.189 117.255C267.026 117.068 266.944 116.858 266.944 116.625V115.4C266.431 116.123 265.707 116.718 264.774 117.185C263.864 117.628 262.779 117.85 261.519 117.85ZM263.164 113.86C264.237 113.86 265.101 113.51 265.754 112.81C266.431 112.11 266.769 111.083 266.769 109.73V109.24L263.794 109.765C261.694 110.138 260.644 110.873 260.644 111.97C260.644 112.553 260.889 113.02 261.379 113.37C261.869 113.697 262.464 113.86 263.164 113.86ZM277.579 117.5C277.345 117.5 277.135 117.418 276.949 117.255C276.785 117.068 276.704 116.858 276.704 116.625V93.525C276.704 93.2683 276.785 93.0583 276.949 92.895C277.135 92.7317 277.345 92.65 277.579 92.65H282.059C282.315 92.65 282.525 92.7317 282.689 92.895C282.852 93.0583 282.934 93.2683 282.934 93.525V101.33C284.334 99.7433 286.177 98.95 288.464 98.95C289.817 98.95 291.019 99.2533 292.069 99.86C293.142 100.467 293.982 101.365 294.589 102.555C295.195 103.745 295.499 105.18 295.499 106.86V116.625C295.499 116.858 295.417 117.068 295.254 117.255C295.09 117.418 294.88 117.5 294.624 117.5H290.109C289.875 117.5 289.665 117.418 289.479 117.255C289.315 117.068 289.234 116.858 289.234 116.625V107.07C289.234 105.973 288.965 105.133 288.429 104.55C287.915 103.943 287.157 103.64 286.154 103.64C285.15 103.64 284.357 103.943 283.774 104.55C283.214 105.133 282.934 105.973 282.934 107.07V116.625C282.934 116.882 282.852 117.092 282.689 117.255C282.525 117.418 282.315 117.5 282.059 117.5H277.579ZM308.179 117.5C307.945 117.5 307.735 117.418 307.549 117.255C307.385 117.068 307.304 116.858 307.304 116.625V93.875C307.304 93.6183 307.385 93.4083 307.549 93.245C307.735 93.0817 307.945 93 308.179 93H311.959C312.519 93 312.927 93.2567 313.184 93.77L319.344 104.795L325.504 93.77C325.76 93.2567 326.169 93 326.729 93H330.474C330.73 93 330.94 93.0817 331.104 93.245C331.29 93.4083 331.384 93.6183 331.384 93.875V116.625C331.384 116.882 331.29 117.092 331.104 117.255C330.94 117.418 330.73 117.5 330.474 117.5H326.309C326.052 117.5 325.83 117.418 325.644 117.255C325.48 117.092 325.399 116.882 325.399 116.625V103.5L321.479 110.815C321.175 111.352 320.767 111.62 320.254 111.62H318.434C318.13 111.62 317.885 111.55 317.699 111.41C317.512 111.27 317.349 111.072 317.209 110.815L313.254 103.5V116.625C313.254 116.858 313.172 117.068 313.009 117.255C312.845 117.418 312.635 117.5 312.379 117.5H308.179ZM344.303 117.85C341.503 117.85 339.298 117.092 337.688 115.575C336.078 114.058 335.238 111.853 335.168 108.96V107.735C335.261 104.982 336.113 102.835 337.723 101.295C339.356 99.7317 341.538 98.95 344.268 98.95C346.251 98.95 347.92 99.3583 349.273 100.175C350.65 100.968 351.676 102.065 352.353 103.465C353.053 104.865 353.403 106.475 353.403 108.295V109.135C353.403 109.368 353.321 109.578 353.158 109.765C352.995 109.928 352.785 110.01 352.528 110.01H341.328V110.255C341.375 111.352 341.643 112.238 342.133 112.915C342.623 113.592 343.335 113.93 344.268 113.93C344.851 113.93 345.33 113.813 345.703 113.58C346.076 113.323 346.415 113.02 346.718 112.67C346.928 112.413 347.091 112.262 347.208 112.215C347.348 112.145 347.558 112.11 347.838 112.11H352.178C352.388 112.11 352.563 112.18 352.703 112.32C352.866 112.437 352.948 112.6 352.948 112.81C352.948 113.417 352.598 114.117 351.898 114.91C351.221 115.703 350.23 116.392 348.923 116.975C347.616 117.558 346.076 117.85 344.303 117.85ZM347.243 106.545V106.475C347.243 105.332 346.975 104.433 346.438 103.78C345.925 103.103 345.201 102.765 344.268 102.765C343.358 102.765 342.635 103.103 342.098 103.78C341.585 104.433 341.328 105.332 341.328 106.475V106.545H347.243ZM363.474 117.85C361.187 117.85 359.402 117.138 358.119 115.715C356.859 114.268 356.171 112.238 356.054 109.625L356.019 108.4L356.054 107.14C356.147 104.62 356.836 102.625 358.119 101.155C359.426 99.685 361.211 98.95 363.474 98.95C365.597 98.95 367.312 99.6383 368.619 101.015V93.525C368.619 93.2683 368.701 93.0583 368.864 92.895C369.027 92.7317 369.237 92.65 369.494 92.65H373.764C374.021 92.65 374.231 92.7317 374.394 92.895C374.557 93.0583 374.639 93.2683 374.639 93.525V116.625C374.639 116.858 374.557 117.068 374.394 117.255C374.231 117.418 374.021 117.5 373.764 117.5H369.809C369.576 117.5 369.366 117.418 369.179 117.255C369.016 117.068 368.934 116.858 368.934 116.625V115.505C367.651 117.068 365.831 117.85 363.474 117.85ZM365.399 113.16C366.449 113.16 367.231 112.833 367.744 112.18C368.257 111.503 368.549 110.64 368.619 109.59C368.642 109.287 368.654 108.843 368.654 108.26C368.654 107.7 368.642 107.268 368.619 106.965C368.572 106.008 368.281 105.215 367.744 104.585C367.207 103.955 366.426 103.64 365.399 103.64C364.302 103.64 363.509 103.967 363.019 104.62C362.552 105.273 362.284 106.172 362.214 107.315C362.191 107.548 362.179 107.91 362.179 108.4C362.179 108.89 362.191 109.252 362.214 109.485C362.284 110.628 362.552 111.527 363.019 112.18C363.509 112.833 364.302 113.16 365.399 113.16ZM379.604 96.675C379.348 96.675 379.138 96.5933 378.974 96.43C378.811 96.2667 378.729 96.0567 378.729 95.8V92.65C378.729 92.3933 378.811 92.1833 378.974 92.02C379.138 91.8567 379.348 91.775 379.604 91.775H383.804C384.061 91.775 384.271 91.8567 384.434 92.02C384.598 92.1833 384.679 92.3933 384.679 92.65V95.8C384.679 96.0567 384.598 96.2667 384.434 96.43C384.271 96.5933 384.061 96.675 383.804 96.675H379.604ZM379.639 117.5C379.383 117.5 379.173 117.418 379.009 117.255C378.846 117.092 378.764 116.882 378.764 116.625V100.175C378.764 99.9183 378.846 99.7083 379.009 99.545C379.173 99.3817 379.383 99.3 379.639 99.3H383.769C384.026 99.3 384.236 99.3817 384.399 99.545C384.563 99.7083 384.644 99.9183 384.644 100.175V116.625C384.644 116.858 384.563 117.068 384.399 117.255C384.236 117.418 384.026 117.5 383.769 117.5H379.639ZM394.239 117.85C393.002 117.85 391.871 117.617 390.844 117.15C389.841 116.66 389.047 116.007 388.464 115.19C387.904 114.35 387.624 113.428 387.624 112.425C387.624 110.815 388.277 109.52 389.584 108.54C390.914 107.56 392.734 106.883 395.044 106.51L399.419 105.845V105.355C399.419 104.468 399.232 103.815 398.859 103.395C398.486 102.975 397.856 102.765 396.969 102.765C396.432 102.765 395.989 102.858 395.639 103.045C395.289 103.232 394.927 103.488 394.554 103.815C394.227 104.095 393.982 104.282 393.819 104.375C393.749 104.562 393.621 104.655 393.434 104.655H389.619C389.386 104.655 389.187 104.585 389.024 104.445C388.884 104.282 388.826 104.095 388.849 103.885C388.872 103.255 389.176 102.555 389.759 101.785C390.366 101.015 391.276 100.35 392.489 99.79C393.726 99.23 395.242 98.95 397.039 98.95C399.909 98.95 402.032 99.5917 403.409 100.875C404.786 102.135 405.474 103.838 405.474 105.985V116.625C405.474 116.858 405.392 117.068 405.229 117.255C405.066 117.418 404.856 117.5 404.599 117.5H400.539C400.306 117.5 400.096 117.418 399.909 117.255C399.746 117.068 399.664 116.858 399.664 116.625V115.4C399.151 116.123 398.427 116.718 397.494 117.185C396.584 117.628 395.499 117.85 394.239 117.85ZM395.884 113.86C396.957 113.86 397.821 113.51 398.474 112.81C399.151 112.11 399.489 111.083 399.489 109.73V109.24L396.514 109.765C394.414 110.138 393.364 110.873 393.364 111.97C393.364 112.553 393.609 113.02 394.099 113.37C394.589 113.697 395.184 113.86 395.884 113.86ZM418.597 117.5C413.767 117.5 411.352 115.202 411.352 110.605V103.885H408.622C408.365 103.885 408.143 103.803 407.957 103.64C407.793 103.477 407.712 103.267 407.712 103.01V100.175C407.712 99.9183 407.793 99.7083 407.957 99.545C408.143 99.3817 408.365 99.3 408.622 99.3H411.352V93.525C411.352 93.2683 411.433 93.0583 411.597 92.895C411.783 92.7317 411.993 92.65 412.227 92.65H416.287C416.543 92.65 416.753 92.7317 416.917 92.895C417.08 93.0583 417.162 93.2683 417.162 93.525V99.3H421.537C421.793 99.3 422.003 99.3817 422.167 99.545C422.353 99.7083 422.447 99.9183 422.447 100.175V103.01C422.447 103.267 422.353 103.477 422.167 103.64C422.003 103.803 421.793 103.885 421.537 103.885H417.162V110.115C417.162 111.842 417.827 112.705 419.157 112.705H421.852C422.108 112.705 422.318 112.787 422.482 112.95C422.645 113.113 422.727 113.323 422.727 113.58V116.625C422.727 116.858 422.645 117.068 422.482 117.255C422.318 117.418 422.108 117.5 421.852 117.5H418.597ZM434.235 117.85C431.341 117.85 429.113 117.162 427.55 115.785C425.986 114.408 425.135 112.472 424.995 109.975C424.971 109.672 424.96 109.147 424.96 108.4C424.96 107.653 424.971 107.128 424.995 106.825C425.135 104.352 426.01 102.427 427.62 101.05C429.23 99.65 431.435 98.95 434.235 98.95C437.058 98.95 439.275 99.65 440.885 101.05C442.495 102.427 443.37 104.352 443.51 106.825C443.533 107.128 443.545 107.653 443.545 108.4C443.545 109.147 443.533 109.672 443.51 109.975C443.37 112.472 442.518 114.408 440.955 115.785C439.391 117.162 437.151 117.85 434.235 117.85ZM434.235 113.58C435.261 113.58 436.02 113.277 436.51 112.67C437 112.04 437.28 111.083 437.35 109.8C437.373 109.567 437.385 109.1 437.385 108.4C437.385 107.7 437.373 107.233 437.35 107C437.28 105.74 436.988 104.795 436.475 104.165C435.985 103.535 435.238 103.22 434.235 103.22C432.298 103.22 431.271 104.48 431.155 107L431.12 108.4L431.155 109.8C431.201 111.083 431.47 112.04 431.96 112.67C432.473 113.277 433.231 113.58 434.235 113.58ZM447.896 117.5C447.639 117.5 447.429 117.418 447.266 117.255C447.103 117.092 447.021 116.882 447.021 116.625V100.175C447.021 99.9183 447.103 99.7083 447.266 99.545C447.429 99.3817 447.639 99.3 447.896 99.3H451.921C452.178 99.3 452.388 99.3933 452.551 99.58C452.738 99.7433 452.831 99.9417 452.831 100.175V101.575C454.114 100.058 455.841 99.3 458.011 99.3H459.551C459.808 99.3 460.018 99.3817 460.181 99.545C460.344 99.7083 460.426 99.9183 460.426 100.175V103.78C460.426 104.013 460.344 104.223 460.181 104.41C460.018 104.573 459.808 104.655 459.551 104.655H456.156C455.199 104.655 454.453 104.923 453.916 105.46C453.403 105.973 453.146 106.708 453.146 107.665V116.625C453.146 116.882 453.053 117.092 452.866 117.255C452.703 117.418 452.493 117.5 452.236 117.5H447.896ZM93.325 162.5C93.0917 162.5 92.8817 162.418 92.695 162.255C92.5317 162.068 92.45 161.858 92.45 161.625V138.875C92.45 138.618 92.5317 138.408 92.695 138.245C92.8817 138.082 93.0917 138 93.325 138H97.735C97.9917 138 98.2017 138.082 98.365 138.245C98.5283 138.408 98.61 138.618 98.61 138.875V146.645L105.085 138.665C105.365 138.222 105.82 138 106.45 138H111.49C111.7 138 111.875 138.082 112.015 138.245C112.155 138.385 112.225 138.548 112.225 138.735C112.225 138.898 112.19 139.038 112.12 139.155L103.72 149.725L112.75 161.345C112.843 161.438 112.89 161.578 112.89 161.765C112.89 161.952 112.82 162.127 112.68 162.29C112.54 162.43 112.365 162.5 112.155 162.5H106.94C106.38 162.5 105.913 162.267 105.54 161.8L98.61 153.155V161.625C98.61 161.882 98.5283 162.092 98.365 162.255C98.2017 162.418 97.9917 162.5 97.735 162.5H93.325ZM120.494 162.85C119.257 162.85 118.125 162.617 117.099 162.15C116.095 161.66 115.302 161.007 114.719 160.19C114.159 159.35 113.879 158.428 113.879 157.425C113.879 155.815 114.532 154.52 115.839 153.54C117.169 152.56 118.989 151.883 121.299 151.51L125.674 150.845V150.355C125.674 149.468 125.487 148.815 125.114 148.395C124.74 147.975 124.11 147.765 123.224 147.765C122.687 147.765 122.244 147.858 121.894 148.045C121.544 148.232 121.182 148.488 120.809 148.815C120.482 149.095 120.237 149.282 120.074 149.375C120.004 149.562 119.875 149.655 119.689 149.655H115.874C115.64 149.655 115.442 149.585 115.279 149.445C115.139 149.282 115.08 149.095 115.104 148.885C115.127 148.255 115.43 147.555 116.014 146.785C116.62 146.015 117.53 145.35 118.744 144.79C119.98 144.23 121.497 143.95 123.294 143.95C126.164 143.95 128.287 144.592 129.664 145.875C131.04 147.135 131.729 148.838 131.729 150.985V161.625C131.729 161.858 131.647 162.068 131.484 162.255C131.32 162.418 131.11 162.5 130.854 162.5H126.794C126.56 162.5 126.35 162.418 126.164 162.255C126 162.068 125.919 161.858 125.919 161.625V160.4C125.405 161.123 124.682 161.718 123.749 162.185C122.839 162.628 121.754 162.85 120.494 162.85ZM122.139 158.86C123.212 158.86 124.075 158.51 124.729 157.81C125.405 157.11 125.744 156.083 125.744 154.73V154.24L122.769 154.765C120.669 155.138 119.619 155.873 119.619 156.97C119.619 157.553 119.864 158.02 120.354 158.37C120.844 158.697 121.439 158.86 122.139 158.86ZM136.553 162.5C136.297 162.5 136.087 162.418 135.923 162.255C135.76 162.092 135.678 161.882 135.678 161.625V145.175C135.678 144.918 135.76 144.708 135.923 144.545C136.087 144.382 136.297 144.3 136.553 144.3H140.368C140.625 144.3 140.835 144.382 140.998 144.545C141.162 144.708 141.243 144.918 141.243 145.175V146.365C141.78 145.665 142.492 145.093 143.378 144.65C144.288 144.183 145.303 143.95 146.423 143.95C148.99 143.95 150.763 144.953 151.743 146.96C152.303 146.073 153.085 145.35 154.088 144.79C155.092 144.23 156.165 143.95 157.308 143.95C159.222 143.95 160.773 144.603 161.963 145.91C163.177 147.193 163.783 149.118 163.783 151.685V161.625C163.783 161.858 163.702 162.068 163.538 162.255C163.375 162.418 163.165 162.5 162.908 162.5H158.848C158.592 162.5 158.37 162.418 158.183 162.255C158.02 162.092 157.938 161.882 157.938 161.625V151.93C157.938 150.763 157.693 149.923 157.203 149.41C156.737 148.897 156.095 148.64 155.278 148.64C154.532 148.64 153.913 148.908 153.423 149.445C152.933 149.958 152.688 150.787 152.688 151.93V161.625C152.688 161.858 152.607 162.068 152.443 162.255C152.28 162.418 152.07 162.5 151.813 162.5H147.753C147.497 162.5 147.287 162.418 147.123 162.255C146.96 162.092 146.878 161.882 146.878 161.625V151.93C146.878 150.787 146.622 149.958 146.108 149.445C145.618 148.908 144.988 148.64 144.218 148.64C143.472 148.64 142.842 148.908 142.328 149.445C141.838 149.958 141.593 150.775 141.593 151.895V161.625C141.593 161.858 141.512 162.068 141.348 162.255C141.185 162.418 140.975 162.5 140.718 162.5H136.553ZM168.579 141.675C168.322 141.675 168.112 141.593 167.949 141.43C167.785 141.267 167.704 141.057 167.704 140.8V137.65C167.704 137.393 167.785 137.183 167.949 137.02C168.112 136.857 168.322 136.775 168.579 136.775H172.779C173.035 136.775 173.245 136.857 173.409 137.02C173.572 137.183 173.654 137.393 173.654 137.65V140.8C173.654 141.057 173.572 141.267 173.409 141.43C173.245 141.593 173.035 141.675 172.779 141.675H168.579ZM168.614 162.5C168.357 162.5 168.147 162.418 167.984 162.255C167.82 162.092 167.739 161.882 167.739 161.625V145.175C167.739 144.918 167.82 144.708 167.984 144.545C168.147 144.382 168.357 144.3 168.614 144.3H172.744C173 144.3 173.21 144.382 173.374 144.545C173.537 144.708 173.619 144.918 173.619 145.175V161.625C173.619 161.858 173.537 162.068 173.374 162.255C173.21 162.418 173 162.5 172.744 162.5H168.614ZM178.768 154.765C178.535 154.765 178.325 154.683 178.138 154.52C177.975 154.333 177.893 154.123 177.893 153.89V138.875C177.893 138.618 177.975 138.408 178.138 138.245C178.325 138.082 178.535 138 178.768 138H182.793C183.05 138 183.26 138.082 183.423 138.245C183.587 138.408 183.668 138.618 183.668 138.875V153.89C183.668 154.123 183.587 154.333 183.423 154.52C183.26 154.683 183.05 154.765 182.793 154.765H178.768ZM178.628 162.5C178.372 162.5 178.162 162.418 177.998 162.255C177.835 162.092 177.753 161.882 177.753 161.625V157.32C177.753 157.063 177.835 156.853 177.998 156.69C178.162 156.503 178.372 156.41 178.628 156.41H182.933C183.167 156.41 183.365 156.503 183.528 156.69C183.715 156.853 183.808 157.063 183.808 157.32V161.625C183.808 161.858 183.727 162.068 183.563 162.255C183.4 162.418 183.19 162.5 182.933 162.5H178.628Z" fill="#54595F"></path><path d="M91.76 201.5C91.6533 201.5 91.568 201.468 91.504 201.404C91.44 201.329 91.408 201.239 91.408 201.132V190.668C91.408 190.561 91.44 190.476 91.504 190.412C91.568 190.337 91.6533 190.3 91.76 190.3H92.56C92.6667 190.3 92.752 190.337 92.816 190.412C92.88 190.476 92.912 190.561 92.912 190.668V200.156H98.256C98.3733 200.156 98.464 200.193 98.528 200.268C98.6027 200.332 98.64 200.417 98.64 200.524V201.132C98.64 201.239 98.6027 201.329 98.528 201.404C98.4533 201.468 98.3627 201.5 98.256 201.5H91.76ZM103.293 201.66C102.205 201.66 101.336 201.324 100.685 200.652C100.034 199.969 99.6769 199.041 99.6129 197.868L99.5969 197.324L99.6129 196.796C99.6769 195.644 100.034 194.727 100.685 194.044C101.336 193.361 102.205 193.02 103.293 193.02C104.466 193.02 105.373 193.393 106.013 194.14C106.664 194.887 106.989 195.9 106.989 197.18V197.468C106.989 197.575 106.952 197.665 106.877 197.74C106.813 197.804 106.728 197.836 106.621 197.836H101.069V197.98C101.101 198.673 101.314 199.265 101.709 199.756C102.104 200.247 102.626 200.492 103.277 200.492C103.778 200.492 104.184 200.396 104.493 200.204C104.813 200.001 105.053 199.793 105.213 199.58C105.309 199.452 105.384 199.377 105.437 199.356C105.49 199.324 105.581 199.308 105.709 199.308H106.413C106.509 199.308 106.589 199.335 106.653 199.388C106.728 199.441 106.765 199.511 106.765 199.596C106.765 199.831 106.621 200.113 106.333 200.444C106.045 200.775 105.634 201.063 105.101 201.308C104.578 201.543 103.976 201.66 103.293 201.66ZM105.533 196.748V196.7C105.533 195.953 105.33 195.345 104.925 194.876C104.52 194.407 103.976 194.172 103.293 194.172C102.6 194.172 102.056 194.407 101.661 194.876C101.266 195.345 101.069 195.953 101.069 196.7V196.748H105.533ZM112.088 201.5C110.434 201.5 109.608 200.567 109.608 198.7V194.412H108.344C108.237 194.412 108.152 194.38 108.088 194.316C108.024 194.252 107.992 194.167 107.992 194.06V193.548C107.992 193.441 108.024 193.356 108.088 193.292C108.152 193.217 108.237 193.18 108.344 193.18H109.608V190.508C109.608 190.401 109.64 190.316 109.704 190.252C109.768 190.177 109.853 190.14 109.96 190.14H110.664C110.77 190.14 110.856 190.177 110.92 190.252C110.994 190.316 111.032 190.401 111.032 190.508V193.18H113.016C113.122 193.18 113.208 193.217 113.272 193.292C113.346 193.356 113.384 193.441 113.384 193.548V194.06C113.384 194.167 113.346 194.252 113.272 194.316C113.208 194.38 113.122 194.412 113.016 194.412H111.032V198.588C111.032 199.132 111.117 199.543 111.288 199.82C111.469 200.097 111.773 200.236 112.2 200.236H113.176C113.282 200.236 113.368 200.273 113.432 200.348C113.496 200.412 113.528 200.497 113.528 200.604V201.132C113.528 201.239 113.496 201.329 113.432 201.404C113.368 201.468 113.282 201.5 113.176 201.5H112.088ZM115.395 193.644C115.203 193.644 115.096 193.527 115.075 193.292L114.803 190.508V190.444C114.803 190.348 114.829 190.273 114.883 190.22C114.947 190.167 115.027 190.14 115.123 190.14H116.131C116.237 190.14 116.317 190.177 116.371 190.252C116.435 190.316 116.461 190.401 116.451 190.508L116.179 193.292C116.157 193.527 116.051 193.644 115.859 193.644H115.395ZM121.048 201.66C120.312 201.66 119.688 201.543 119.176 201.308C118.675 201.063 118.301 200.785 118.056 200.476C117.811 200.167 117.688 199.911 117.688 199.708C117.688 199.601 117.725 199.521 117.8 199.468C117.875 199.404 117.955 199.372 118.04 199.372H118.712C118.776 199.372 118.824 199.383 118.856 199.404C118.899 199.425 118.952 199.473 119.016 199.548C119.261 199.847 119.533 200.081 119.832 200.252C120.141 200.423 120.552 200.508 121.064 200.508C121.64 200.508 122.099 200.401 122.44 200.188C122.792 199.975 122.968 199.665 122.968 199.26C122.968 198.993 122.893 198.78 122.744 198.62C122.595 198.46 122.344 198.316 121.992 198.188C121.651 198.06 121.139 197.921 120.456 197.772C119.528 197.569 118.872 197.276 118.488 196.892C118.104 196.508 117.912 196.012 117.912 195.404C117.912 195.009 118.029 194.631 118.264 194.268C118.499 193.895 118.845 193.596 119.304 193.372C119.773 193.137 120.328 193.02 120.968 193.02C121.64 193.02 122.211 193.132 122.68 193.356C123.16 193.58 123.517 193.841 123.752 194.14C123.997 194.439 124.12 194.689 124.12 194.892C124.12 194.988 124.083 195.068 124.008 195.132C123.944 195.196 123.864 195.228 123.768 195.228H123.16C123.011 195.228 122.904 195.169 122.84 195.052C122.659 194.849 122.504 194.695 122.376 194.588C122.259 194.471 122.083 194.375 121.848 194.3C121.613 194.215 121.32 194.172 120.968 194.172C120.445 194.172 120.045 194.284 119.768 194.508C119.491 194.721 119.352 195.009 119.352 195.372C119.352 195.596 119.411 195.788 119.528 195.948C119.645 196.097 119.869 196.241 120.2 196.38C120.531 196.508 121.021 196.641 121.672 196.78C122.685 196.993 123.4 197.297 123.816 197.692C124.243 198.087 124.456 198.593 124.456 199.212C124.456 199.671 124.323 200.087 124.056 200.46C123.8 200.833 123.411 201.127 122.888 201.34C122.376 201.553 121.763 201.66 121.048 201.66ZM133.111 201.66C132.375 201.66 131.751 201.543 131.239 201.308C130.737 201.063 130.364 200.785 130.118 200.476C129.873 200.167 129.751 199.911 129.751 199.708C129.751 199.601 129.788 199.521 129.863 199.468C129.937 199.404 130.017 199.372 130.103 199.372H130.775C130.839 199.372 130.887 199.383 130.919 199.404C130.961 199.425 131.015 199.473 131.079 199.548C131.324 199.847 131.596 200.081 131.895 200.252C132.204 200.423 132.615 200.508 133.127 200.508C133.703 200.508 134.161 200.401 134.503 200.188C134.855 199.975 135.031 199.665 135.031 199.26C135.031 198.993 134.956 198.78 134.807 198.62C134.657 198.46 134.407 198.316 134.055 198.188C133.713 198.06 133.201 197.921 132.519 197.772C131.591 197.569 130.935 197.276 130.551 196.892C130.167 196.508 129.975 196.012 129.975 195.404C129.975 195.009 130.092 194.631 130.327 194.268C130.561 193.895 130.908 193.596 131.367 193.372C131.836 193.137 132.391 193.02 133.031 193.02C133.703 193.02 134.273 193.132 134.743 193.356C135.223 193.58 135.58 193.841 135.815 194.14C136.06 194.439 136.183 194.689 136.183 194.892C136.183 194.988 136.145 195.068 136.071 195.132C136.007 195.196 135.927 195.228 135.831 195.228H135.223C135.073 195.228 134.967 195.169 134.903 195.052C134.721 194.849 134.567 194.695 134.439 194.588C134.321 194.471 134.145 194.375 133.911 194.3C133.676 194.215 133.383 194.172 133.031 194.172C132.508 194.172 132.108 194.284 131.831 194.508C131.553 194.721 131.414 195.009 131.414 195.372C131.414 195.596 131.473 195.788 131.591 195.948C131.708 196.097 131.932 196.241 132.263 196.38C132.593 196.508 133.084 196.641 133.735 196.78C134.748 196.993 135.463 197.297 135.879 197.692C136.305 198.087 136.519 198.593 136.519 199.212C136.519 199.671 136.385 200.087 136.119 200.46C135.863 200.833 135.473 201.127 134.951 201.34C134.439 201.553 133.825 201.66 133.111 201.66ZM141.492 201.66C140.478 201.66 139.694 201.335 139.14 200.684C138.585 200.023 138.308 199.148 138.308 198.06V193.548C138.308 193.441 138.34 193.356 138.404 193.292C138.478 193.217 138.569 193.18 138.676 193.18H139.412C139.518 193.18 139.604 193.217 139.668 193.292C139.742 193.356 139.78 193.441 139.78 193.548V197.98C139.78 199.601 140.484 200.412 141.891 200.412C142.574 200.412 143.113 200.199 143.508 199.772C143.913 199.335 144.116 198.737 144.116 197.98V193.548C144.116 193.441 144.148 193.356 144.212 193.292C144.286 193.217 144.377 193.18 144.484 193.18H145.22C145.326 193.18 145.412 193.217 145.476 193.292C145.55 193.356 145.588 193.441 145.588 193.548V201.132C145.588 201.239 145.55 201.329 145.476 201.404C145.412 201.468 145.326 201.5 145.22 201.5H144.532C144.425 201.5 144.334 201.468 144.26 201.404C144.196 201.329 144.164 201.239 144.164 201.132V200.412C143.854 200.828 143.492 201.143 143.076 201.356C142.66 201.559 142.132 201.66 141.492 201.66ZM152.045 201.66C150.893 201.66 150.013 201.255 149.405 200.444V201.132C149.405 201.239 149.368 201.329 149.293 201.404C149.229 201.468 149.144 201.5 149.037 201.5H148.365C148.259 201.5 148.168 201.468 148.093 201.404C148.029 201.329 147.997 201.239 147.997 201.132V190.508C147.997 190.391 148.029 190.3 148.093 190.236C148.168 190.172 148.259 190.14 148.365 190.14H149.085C149.192 190.14 149.277 190.177 149.341 190.252C149.416 190.316 149.453 190.401 149.453 190.508V194.204C150.051 193.415 150.915 193.02 152.045 193.02C153.165 193.02 154.003 193.388 154.557 194.124C155.123 194.849 155.421 195.761 155.453 196.86C155.464 196.977 155.469 197.137 155.469 197.34C155.469 197.543 155.464 197.703 155.453 197.82C155.421 198.919 155.123 199.836 154.557 200.572C154.003 201.297 153.165 201.66 152.045 201.66ZM151.741 200.412C152.509 200.412 153.069 200.172 153.421 199.692C153.773 199.212 153.965 198.583 153.997 197.804C154.008 197.697 154.013 197.543 154.013 197.34C154.013 195.292 153.256 194.268 151.741 194.268C151.016 194.268 150.456 194.508 150.061 194.988C149.677 195.457 149.475 196.017 149.453 196.668C149.443 196.785 149.437 196.993 149.437 197.292C149.437 197.58 149.443 197.783 149.453 197.9C149.475 198.583 149.672 199.175 150.045 199.676C150.429 200.167 150.995 200.412 151.741 200.412ZM160.329 201.66C159.593 201.66 158.969 201.543 158.457 201.308C157.956 201.063 157.583 200.785 157.337 200.476C157.092 200.167 156.969 199.911 156.969 199.708C156.969 199.601 157.007 199.521 157.081 199.468C157.156 199.404 157.236 199.372 157.321 199.372H157.993C158.057 199.372 158.105 199.383 158.137 199.404C158.18 199.425 158.233 199.473 158.297 199.548C158.543 199.847 158.815 200.081 159.113 200.252C159.423 200.423 159.833 200.508 160.345 200.508C160.921 200.508 161.38 200.401 161.721 200.188C162.073 199.975 162.249 199.665 162.249 199.26C162.249 198.993 162.175 198.78 162.025 198.62C161.876 198.46 161.625 198.316 161.273 198.188C160.932 198.06 160.42 197.921 159.737 197.772C158.809 197.569 158.153 197.276 157.769 196.892C157.385 196.508 157.193 196.012 157.193 195.404C157.193 195.009 157.311 194.631 157.545 194.268C157.78 193.895 158.127 193.596 158.585 193.372C159.055 193.137 159.609 193.02 160.249 193.02C160.921 193.02 161.492 193.132 161.961 193.356C162.441 193.58 162.799 193.841 163.033 194.14C163.279 194.439 163.401 194.689 163.401 194.892C163.401 194.988 163.364 195.068 163.289 195.132C163.225 195.196 163.145 195.228 163.049 195.228H162.441C162.292 195.228 162.185 195.169 162.121 195.052C161.94 194.849 161.785 194.695 161.657 194.588C161.54 194.471 161.364 194.375 161.129 194.3C160.895 194.215 160.601 194.172 160.249 194.172C159.727 194.172 159.327 194.284 159.049 194.508C158.772 194.721 158.633 195.009 158.633 195.372C158.633 195.596 158.692 195.788 158.809 195.948C158.927 196.097 159.151 196.241 159.481 196.38C159.812 196.508 160.303 196.641 160.953 196.78C161.967 196.993 162.681 197.297 163.097 197.692C163.524 198.087 163.737 198.593 163.737 199.212C163.737 199.671 163.604 200.087 163.337 200.46C163.081 200.833 162.692 201.127 162.169 201.34C161.657 201.553 161.044 201.66 160.329 201.66ZM168.934 201.66C167.793 201.66 166.902 201.34 166.262 200.7C165.622 200.049 165.286 199.143 165.254 197.98L165.238 197.34L165.254 196.7C165.286 195.537 165.622 194.636 166.262 193.996C166.902 193.345 167.793 193.02 168.934 193.02C169.702 193.02 170.348 193.159 170.87 193.436C171.404 193.703 171.798 194.039 172.054 194.444C172.321 194.849 172.465 195.255 172.486 195.66C172.497 195.756 172.46 195.841 172.374 195.916C172.3 195.991 172.214 196.028 172.118 196.028H171.414C171.308 196.028 171.228 196.007 171.174 195.964C171.121 195.911 171.068 195.82 171.014 195.692C170.822 195.169 170.556 194.801 170.214 194.588C169.884 194.364 169.462 194.252 168.95 194.252C168.278 194.252 167.745 194.46 167.35 194.876C166.956 195.292 166.742 195.927 166.71 196.78L166.694 197.34L166.71 197.9C166.742 198.753 166.956 199.388 167.35 199.804C167.745 200.22 168.278 200.428 168.95 200.428C169.473 200.428 169.9 200.321 170.23 200.108C170.561 199.884 170.822 199.511 171.014 198.988C171.068 198.86 171.121 198.775 171.174 198.732C171.228 198.679 171.308 198.652 171.414 198.652H172.118C172.214 198.652 172.3 198.689 172.374 198.764C172.46 198.839 172.497 198.924 172.486 199.02C172.465 199.415 172.321 199.815 172.054 200.22C171.798 200.625 171.404 200.967 170.87 201.244C170.348 201.521 169.702 201.66 168.934 201.66ZM174.771 201.5C174.664 201.5 174.574 201.468 174.499 201.404C174.435 201.329 174.403 201.239 174.403 201.132V193.564C174.403 193.457 174.435 193.367 174.499 193.292C174.574 193.217 174.664 193.18 174.771 193.18H175.443C175.56 193.18 175.651 193.217 175.715 193.292C175.79 193.356 175.827 193.447 175.827 193.564V194.268C176.264 193.543 177.006 193.18 178.051 193.18H178.675C178.792 193.18 178.883 193.212 178.947 193.276C179.011 193.34 179.043 193.431 179.043 193.548V194.14C179.043 194.247 179.011 194.337 178.947 194.412C178.883 194.476 178.792 194.508 178.675 194.508H177.763C177.176 194.508 176.712 194.679 176.371 195.02C176.04 195.361 175.875 195.825 175.875 196.412V201.132C175.875 201.239 175.838 201.329 175.763 201.404C175.688 201.468 175.598 201.5 175.491 201.5H174.771ZM180.659 191.612C180.552 191.612 180.461 191.58 180.387 191.516C180.323 191.441 180.291 191.351 180.291 191.244V190.412C180.291 190.305 180.323 190.215 180.387 190.14C180.461 190.065 180.552 190.028 180.659 190.028H181.603C181.709 190.028 181.8 190.065 181.875 190.14C181.949 190.215 181.987 190.305 181.987 190.412V191.244C181.987 191.351 181.949 191.441 181.875 191.516C181.8 191.58 181.709 191.612 181.603 191.612H180.659ZM180.787 201.5C180.68 201.5 180.589 201.468 180.515 201.404C180.451 201.329 180.419 201.239 180.419 201.132V193.548C180.419 193.441 180.451 193.356 180.515 193.292C180.589 193.217 180.68 193.18 180.787 193.18H181.491C181.597 193.18 181.683 193.217 181.747 193.292C181.821 193.356 181.859 193.441 181.859 193.548V201.132C181.859 201.239 181.821 201.329 181.747 201.404C181.683 201.468 181.597 201.5 181.491 201.5H180.787ZM188.327 201.66C187.175 201.66 186.295 201.255 185.687 200.444V201.132C185.687 201.239 185.649 201.329 185.575 201.404C185.511 201.468 185.425 201.5 185.319 201.5H184.647C184.54 201.5 184.449 201.468 184.375 201.404C184.311 201.329 184.279 201.239 184.279 201.132V190.508C184.279 190.391 184.311 190.3 184.375 190.236C184.449 190.172 184.54 190.14 184.647 190.14H185.367C185.473 190.14 185.559 190.177 185.623 190.252C185.697 190.316 185.735 190.401 185.735 190.508V194.204C186.332 193.415 187.196 193.02 188.327 193.02C189.447 193.02 190.284 193.388 190.839 194.124C191.404 194.849 191.703 195.761 191.735 196.86C191.745 196.977 191.751 197.137 191.751 197.34C191.751 197.543 191.745 197.703 191.735 197.82C191.703 198.919 191.404 199.836 190.839 200.572C190.284 201.297 189.447 201.66 188.327 201.66ZM188.023 200.412C188.791 200.412 189.351 200.172 189.703 199.692C190.055 199.212 190.247 198.583 190.279 197.804C190.289 197.697 190.295 197.543 190.295 197.34C190.295 195.292 189.537 194.268 188.023 194.268C187.297 194.268 186.737 194.508 186.343 194.988C185.959 195.457 185.756 196.017 185.735 196.668C185.724 196.785 185.719 196.993 185.719 197.292C185.719 197.58 185.724 197.783 185.735 197.9C185.756 198.583 185.953 199.175 186.327 199.676C186.711 200.167 187.276 200.412 188.023 200.412ZM197.059 201.66C195.971 201.66 195.101 201.324 194.451 200.652C193.8 199.969 193.443 199.041 193.379 197.868L193.363 197.324L193.379 196.796C193.443 195.644 193.8 194.727 194.451 194.044C195.101 193.361 195.971 193.02 197.059 193.02C198.232 193.02 199.139 193.393 199.779 194.14C200.429 194.887 200.755 195.9 200.755 197.18V197.468C200.755 197.575 200.717 197.665 200.642 197.74C200.579 197.804 200.493 197.836 200.387 197.836H194.835V197.98C194.867 198.673 195.08 199.265 195.475 199.756C195.869 200.247 196.392 200.492 197.043 200.492C197.544 200.492 197.949 200.396 198.259 200.204C198.579 200.001 198.819 199.793 198.979 199.58C199.075 199.452 199.149 199.377 199.203 199.356C199.256 199.324 199.347 199.308 199.475 199.308H200.179C200.275 199.308 200.355 199.335 200.419 199.388C200.493 199.441 200.531 199.511 200.531 199.596C200.531 199.831 200.387 200.113 200.099 200.444C199.811 200.775 199.4 201.063 198.867 201.308C198.344 201.543 197.741 201.66 197.059 201.66ZM199.299 196.748V196.7C199.299 195.953 199.096 195.345 198.691 194.876C198.285 194.407 197.741 194.172 197.059 194.172C196.365 194.172 195.821 194.407 195.427 194.876C195.032 195.345 194.835 195.953 194.835 196.7V196.748H199.299ZM208.471 201.5C208.321 201.5 208.209 201.468 208.135 201.404C208.06 201.34 208.001 201.239 207.959 201.1L205.687 193.676L205.655 193.516C205.655 193.42 205.687 193.34 205.751 193.276C205.815 193.212 205.895 193.18 205.991 193.18H206.647C206.753 193.18 206.839 193.212 206.903 193.276C206.977 193.329 207.02 193.383 207.031 193.436L208.839 199.548L210.759 193.516C210.78 193.431 210.828 193.356 210.903 193.292C210.977 193.217 211.079 193.18 211.207 193.18H211.719C211.847 193.18 211.948 193.217 212.023 193.292C212.097 193.356 212.145 193.431 212.167 193.516L214.087 199.548L215.895 193.436C215.905 193.383 215.943 193.329 216.007 193.276C216.081 193.212 216.172 193.18 216.279 193.18H216.935C217.031 193.18 217.111 193.212 217.175 193.276C217.239 193.34 217.271 193.42 217.271 193.516L217.239 193.676L214.967 201.1C214.924 201.239 214.865 201.34 214.791 201.404C214.716 201.468 214.604 201.5 214.455 201.5H213.878C213.601 201.5 213.42 201.367 213.335 201.1L211.463 195.308L209.591 201.1C209.505 201.367 209.324 201.5 209.047 201.5H208.471ZM219.299 191.612C219.193 191.612 219.102 191.58 219.027 191.516C218.963 191.441 218.931 191.351 218.931 191.244V190.412C218.931 190.305 218.963 190.215 219.027 190.14C219.102 190.065 219.193 190.028 219.299 190.028H220.243C220.35 190.028 220.441 190.065 220.515 190.14C220.59 190.215 220.627 190.305 220.627 190.412V191.244C220.627 191.351 220.59 191.441 220.515 191.516C220.441 191.58 220.35 191.612 220.243 191.612H219.299ZM219.427 201.5C219.321 201.5 219.23 201.468 219.155 201.404C219.091 201.329 219.059 201.239 219.059 201.132V193.548C219.059 193.441 219.091 193.356 219.155 193.292C219.23 193.217 219.321 193.18 219.427 193.18H220.131C220.238 193.18 220.323 193.217 220.387 193.292C220.462 193.356 220.499 193.441 220.499 193.548V201.132C220.499 201.239 220.462 201.329 220.387 201.404C220.323 201.468 220.238 201.5 220.131 201.5H219.427ZM226.103 201.5C224.45 201.5 223.623 200.567 223.623 198.7V194.412H222.359C222.252 194.412 222.167 194.38 222.103 194.316C222.039 194.252 222.007 194.167 222.007 194.06V193.548C222.007 193.441 222.039 193.356 222.103 193.292C222.167 193.217 222.252 193.18 222.359 193.18H223.623V190.508C223.623 190.401 223.655 190.316 223.719 190.252C223.783 190.177 223.868 190.14 223.975 190.14H224.679C224.786 190.14 224.871 190.177 224.935 190.252C225.01 190.316 225.047 190.401 225.047 190.508V193.18H227.031C227.138 193.18 227.223 193.217 227.287 193.292C227.362 193.356 227.399 193.441 227.399 193.548V194.06C227.399 194.167 227.362 194.252 227.287 194.316C227.223 194.38 227.138 194.412 227.031 194.412H225.047V198.588C225.047 199.132 225.132 199.543 225.303 199.82C225.484 200.097 225.788 200.236 226.215 200.236H227.191C227.298 200.236 227.383 200.273 227.447 200.348C227.511 200.412 227.543 200.497 227.543 200.604V201.132C227.543 201.239 227.511 201.329 227.447 201.404C227.383 201.468 227.298 201.5 227.191 201.5H226.103ZM229.49 201.5C229.384 201.5 229.293 201.468 229.218 201.404C229.154 201.329 229.122 201.239 229.122 201.132V190.508C229.122 190.391 229.154 190.3 229.218 190.236C229.293 190.172 229.384 190.14 229.49 190.14H230.226C230.344 190.14 230.434 190.172 230.498 190.236C230.562 190.3 230.594 190.391 230.594 190.508V194.236C230.904 193.841 231.266 193.543 231.682 193.34C232.109 193.127 232.632 193.02 233.25 193.02C234.274 193.02 235.069 193.351 235.634 194.012C236.21 194.663 236.498 195.527 236.498 196.604V201.132C236.498 201.239 236.461 201.329 236.386 201.404C236.322 201.468 236.237 201.5 236.13 201.5H235.378C235.272 201.5 235.181 201.468 235.106 201.404C235.042 201.329 235.01 201.239 235.01 201.132V196.7C235.01 195.932 234.824 195.335 234.45 194.908C234.077 194.481 233.538 194.268 232.834 194.268C232.152 194.268 231.608 194.487 231.202 194.924C230.797 195.351 230.594 195.943 230.594 196.7V201.132C230.594 201.239 230.557 201.329 230.482 201.404C230.418 201.468 230.333 201.5 230.226 201.5H229.49ZM245.867 201.66C244.853 201.66 244.069 201.335 243.515 200.684C242.96 200.023 242.683 199.148 242.683 198.06V193.548C242.683 193.441 242.715 193.356 242.779 193.292C242.853 193.217 242.944 193.18 243.051 193.18H243.787C243.893 193.18 243.979 193.217 244.043 193.292C244.117 193.356 244.155 193.441 244.155 193.548V197.98C244.155 199.601 244.859 200.412 246.266 200.412C246.949 200.412 247.488 200.199 247.883 199.772C248.288 199.335 248.491 198.737 248.491 197.98V193.548C248.491 193.441 248.523 193.356 248.587 193.292C248.661 193.217 248.752 193.18 248.859 193.18H249.595C249.701 193.18 249.787 193.217 249.851 193.292C249.925 193.356 249.963 193.441 249.963 193.548V201.132C249.963 201.239 249.925 201.329 249.851 201.404C249.787 201.468 249.701 201.5 249.595 201.5H248.907C248.8 201.5 248.709 201.468 248.635 201.404C248.571 201.329 248.539 201.239 248.539 201.132V200.412C248.229 200.828 247.867 201.143 247.451 201.356C247.035 201.559 246.507 201.66 245.867 201.66ZM255.204 201.66C254.468 201.66 253.844 201.543 253.332 201.308C252.831 201.063 252.458 200.785 252.212 200.476C251.967 200.167 251.844 199.911 251.844 199.708C251.844 199.601 251.882 199.521 251.956 199.468C252.031 199.404 252.111 199.372 252.196 199.372H252.868C252.932 199.372 252.98 199.383 253.012 199.404C253.055 199.425 253.108 199.473 253.172 199.548C253.418 199.847 253.69 200.081 253.988 200.252C254.298 200.423 254.708 200.508 255.22 200.508C255.796 200.508 256.255 200.401 256.596 200.188C256.948 199.975 257.124 199.665 257.124 199.26C257.124 198.993 257.05 198.78 256.9 198.62C256.751 198.46 256.5 198.316 256.148 198.188C255.807 198.06 255.295 197.921 254.612 197.772C253.684 197.569 253.028 197.276 252.644 196.892C252.26 196.508 252.068 196.012 252.068 195.404C252.068 195.009 252.186 194.631 252.42 194.268C252.655 193.895 253.002 193.596 253.46 193.372C253.93 193.137 254.484 193.02 255.124 193.02C255.796 193.02 256.367 193.132 256.836 193.356C257.316 193.58 257.674 193.841 257.908 194.14C258.154 194.439 258.276 194.689 258.276 194.892C258.276 194.988 258.239 195.068 258.164 195.132C258.1 195.196 258.02 195.228 257.924 195.228H257.316C257.167 195.228 257.06 195.169 256.996 195.052C256.815 194.849 256.66 194.695 256.532 194.588C256.415 194.471 256.239 194.375 256.004 194.3C255.77 194.215 255.476 194.172 255.124 194.172C254.602 194.172 254.202 194.284 253.924 194.508C253.647 194.721 253.508 195.009 253.508 195.372C253.508 195.596 253.567 195.788 253.684 195.948C253.802 196.097 254.026 196.241 254.356 196.38C254.687 196.508 255.178 196.641 255.828 196.78C256.842 196.993 257.556 197.297 257.972 197.692C258.399 198.087 258.612 198.593 258.612 199.212C258.612 199.671 258.479 200.087 258.212 200.46C257.956 200.833 257.567 201.127 257.044 201.34C256.532 201.553 255.919 201.66 255.204 201.66ZM266.723 201.66C266.2 201.66 265.715 201.553 265.267 201.34C264.829 201.127 264.477 200.839 264.211 200.476C263.955 200.103 263.827 199.692 263.827 199.244C263.827 198.54 264.115 197.964 264.691 197.516C265.267 197.068 266.051 196.769 267.043 196.62L269.443 196.284V195.82C269.443 194.721 268.808 194.172 267.539 194.172C267.048 194.172 266.653 194.273 266.355 194.476C266.056 194.668 265.837 194.897 265.699 195.164C265.656 195.271 265.608 195.345 265.555 195.388C265.512 195.42 265.448 195.436 265.363 195.436H264.739C264.643 195.436 264.557 195.404 264.483 195.34C264.419 195.265 264.387 195.18 264.387 195.084C264.387 194.839 264.499 194.556 264.723 194.236C264.957 193.905 265.315 193.623 265.795 193.388C266.275 193.143 266.861 193.02 267.555 193.02C268.749 193.02 269.603 193.297 270.115 193.852C270.637 194.407 270.899 195.1 270.899 195.932V201.132C270.899 201.239 270.861 201.329 270.787 201.404C270.723 201.468 270.637 201.5 270.531 201.5H269.827C269.72 201.5 269.635 201.468 269.571 201.404C269.507 201.329 269.475 201.239 269.475 201.132V200.428C269.24 200.78 268.899 201.073 268.451 201.308C268.003 201.543 267.427 201.66 266.723 201.66ZM267.043 200.492C267.747 200.492 268.323 200.263 268.771 199.804C269.219 199.345 269.443 198.679 269.443 197.804V197.356L267.571 197.628C266.803 197.735 266.221 197.916 265.827 198.172C265.432 198.428 265.235 198.748 265.235 199.132C265.235 199.569 265.411 199.905 265.763 200.14C266.125 200.375 266.552 200.492 267.043 200.492ZM273.584 201.5C273.477 201.5 273.386 201.468 273.312 201.404C273.248 201.329 273.216 201.239 273.216 201.132V193.548C273.216 193.441 273.248 193.356 273.312 193.292C273.386 193.217 273.477 193.18 273.584 193.18H274.272C274.389 193.18 274.48 193.212 274.544 193.276C274.608 193.34 274.64 193.431 274.64 193.548V194.252C274.96 193.857 275.328 193.553 275.744 193.34C276.17 193.127 276.698 193.02 277.328 193.02C278.352 193.02 279.146 193.351 279.712 194.012C280.277 194.663 280.56 195.527 280.56 196.604V201.132C280.56 201.239 280.522 201.329 280.448 201.404C280.384 201.468 280.298 201.5 280.192 201.5H279.456C279.349 201.5 279.258 201.468 279.184 201.404C279.12 201.329 279.088 201.239 279.088 201.132V196.7C279.088 195.932 278.901 195.335 278.528 194.908C278.154 194.481 277.621 194.268 276.928 194.268C276.245 194.268 275.701 194.487 275.296 194.924C274.89 195.351 274.688 195.943 274.688 196.7V201.132C274.688 201.239 274.65 201.329 274.576 201.404C274.512 201.468 274.426 201.5 274.32 201.5H273.584ZM285.912 201.66C284.792 201.66 283.949 201.297 283.384 200.572C282.829 199.847 282.531 198.929 282.488 197.82L282.472 197.34L282.488 196.86C282.531 195.761 282.835 194.849 283.4 194.124C283.965 193.388 284.803 193.02 285.912 193.02C287.021 193.02 287.885 193.415 288.504 194.204V190.508C288.504 190.401 288.536 190.316 288.6 190.252C288.675 190.177 288.765 190.14 288.872 190.14H289.592C289.699 190.14 289.784 190.177 289.848 190.252C289.923 190.316 289.96 190.401 289.96 190.508V201.132C289.96 201.239 289.923 201.329 289.848 201.404C289.784 201.468 289.699 201.5 289.592 201.5H288.904C288.797 201.5 288.712 201.468 288.648 201.404C288.584 201.329 288.552 201.239 288.552 201.132V200.444C287.944 201.255 287.064 201.66 285.912 201.66ZM286.216 200.412C286.963 200.412 287.523 200.167 287.896 199.676C288.269 199.175 288.472 198.583 288.504 197.9C288.515 197.783 288.52 197.58 288.52 197.292C288.52 196.993 288.515 196.785 288.504 196.668C288.483 196.017 288.275 195.457 287.88 194.988C287.496 194.508 286.941 194.268 286.216 194.268C285.448 194.268 284.888 194.508 284.536 194.988C284.184 195.468 283.992 196.097 283.96 196.876L283.944 197.34C283.944 199.388 284.701 200.412 286.216 200.412ZM297.213 201.5C297.106 201.5 297.015 201.468 296.941 201.404C296.877 201.329 296.845 201.239 296.845 201.132V194.412H295.469C295.362 194.412 295.271 194.38 295.197 194.316C295.133 194.252 295.101 194.167 295.101 194.06V193.548C295.101 193.441 295.133 193.356 295.197 193.292C295.271 193.217 295.362 193.18 295.469 193.18H296.845V192.38C296.845 191.516 297.053 190.849 297.469 190.38C297.895 189.9 298.589 189.66 299.549 189.66H301.949C302.055 189.66 302.141 189.697 302.205 189.772C302.269 189.836 302.301 189.921 302.301 190.028V190.54C302.301 190.647 302.269 190.732 302.205 190.796C302.141 190.86 302.055 190.892 301.949 190.892H299.581C299.09 190.892 298.749 191.02 298.557 191.276C298.365 191.532 298.269 191.927 298.269 192.46V193.18H301.949C302.055 193.18 302.141 193.217 302.205 193.292C302.269 193.356 302.301 193.441 302.301 193.548V201.132C302.301 201.239 302.269 201.329 302.205 201.404C302.141 201.468 302.055 201.5 301.949 201.5H301.245C301.138 201.5 301.047 201.468 300.973 201.404C300.909 201.329 300.877 201.239 300.877 201.132V194.412H298.269V201.132C298.269 201.239 298.231 201.329 298.157 201.404C298.093 201.468 298.007 201.5 297.901 201.5H297.213ZM305.068 201.5C304.961 201.5 304.871 201.468 304.796 201.404C304.732 201.329 304.7 201.239 304.7 201.132V193.548C304.7 193.441 304.732 193.356 304.796 193.292C304.871 193.217 304.961 193.18 305.068 193.18H305.756C305.873 193.18 305.964 193.212 306.028 193.276C306.092 193.34 306.124 193.431 306.124 193.548V194.252C306.444 193.857 306.812 193.553 307.228 193.34C307.655 193.127 308.183 193.02 308.812 193.02C309.836 193.02 310.631 193.351 311.196 194.012C311.761 194.663 312.044 195.527 312.044 196.604V201.132C312.044 201.239 312.007 201.329 311.932 201.404C311.868 201.468 311.783 201.5 311.676 201.5H310.94C310.833 201.5 310.743 201.468 310.668 201.404C310.604 201.329 310.572 201.239 310.572 201.132V196.7C310.572 195.932 310.385 195.335 310.012 194.908C309.639 194.481 309.105 194.268 308.412 194.268C307.729 194.268 307.185 194.487 306.78 194.924C306.375 195.351 306.172 195.943 306.172 196.7V201.132C306.172 201.239 306.135 201.329 306.06 201.404C305.996 201.468 305.911 201.5 305.804 201.5H305.068ZM317.396 201.66C316.276 201.66 315.434 201.297 314.868 200.572C314.314 199.847 314.015 198.929 313.972 197.82L313.956 197.34L313.972 196.86C314.015 195.761 314.319 194.849 314.884 194.124C315.45 193.388 316.287 193.02 317.396 193.02C318.506 193.02 319.37 193.415 319.988 194.204V190.508C319.988 190.401 320.02 190.316 320.084 190.252C320.159 190.177 320.25 190.14 320.356 190.14H321.076C321.183 190.14 321.268 190.177 321.332 190.252C321.407 190.316 321.444 190.401 321.444 190.508V201.132C321.444 201.239 321.407 201.329 321.332 201.404C321.268 201.468 321.183 201.5 321.076 201.5H320.388C320.282 201.5 320.196 201.468 320.132 201.404C320.068 201.329 320.036 201.239 320.036 201.132V200.444C319.428 201.255 318.548 201.66 317.396 201.66ZM317.7 200.412C318.447 200.412 319.007 200.167 319.38 199.676C319.754 199.175 319.956 198.583 319.988 197.9C319.999 197.783 320.004 197.58 320.004 197.292C320.004 196.993 319.999 196.785 319.988 196.668C319.967 196.017 319.759 195.457 319.364 194.988C318.98 194.508 318.426 194.268 317.7 194.268C316.932 194.268 316.372 194.508 316.02 194.988C315.668 195.468 315.476 196.097 315.444 196.876L315.428 197.34C315.428 199.388 316.186 200.412 317.7 200.412ZM330.65 201.5C328.997 201.5 328.17 200.567 328.17 198.7V194.412H326.906C326.799 194.412 326.714 194.38 326.65 194.316C326.586 194.252 326.554 194.167 326.554 194.06V193.548C326.554 193.441 326.586 193.356 326.65 193.292C326.714 193.217 326.799 193.18 326.906 193.18H328.17V190.508C328.17 190.401 328.202 190.316 328.266 190.252C328.33 190.177 328.415 190.14 328.522 190.14H329.226C329.333 190.14 329.418 190.177 329.482 190.252C329.557 190.316 329.594 190.401 329.594 190.508V193.18H331.578C331.685 193.18 331.77 193.217 331.834 193.292C331.909 193.356 331.946 193.441 331.946 193.548V194.06C331.946 194.167 331.909 194.252 331.834 194.316C331.77 194.38 331.685 194.412 331.578 194.412H329.594V198.588C329.594 199.132 329.679 199.543 329.85 199.82C330.031 200.097 330.335 200.236 330.762 200.236H331.738C331.845 200.236 331.93 200.273 331.994 200.348C332.058 200.412 332.09 200.497 332.09 200.604V201.132C332.09 201.239 332.058 201.329 331.994 201.404C331.93 201.468 331.845 201.5 331.738 201.5H330.65ZM334.037 201.5C333.93 201.5 333.84 201.468 333.765 201.404C333.701 201.329 333.669 201.239 333.669 201.132V190.508C333.669 190.391 333.701 190.3 333.765 190.236C333.84 190.172 333.93 190.14 334.037 190.14H334.773C334.89 190.14 334.981 190.172 335.045 190.236C335.109 190.3 335.141 190.391 335.141 190.508V194.236C335.45 193.841 335.813 193.543 336.229 193.34C336.656 193.127 337.178 193.02 337.797 193.02C338.821 193.02 339.616 193.351 340.181 194.012C340.757 194.663 341.045 195.527 341.045 196.604V201.132C341.045 201.239 341.008 201.329 340.933 201.404C340.869 201.468 340.784 201.5 340.677 201.5H339.925C339.818 201.5 339.728 201.468 339.653 201.404C339.589 201.329 339.557 201.239 339.557 201.132V196.7C339.557 195.932 339.37 195.335 338.997 194.908C338.624 194.481 338.085 194.268 337.381 194.268C336.698 194.268 336.154 194.487 335.749 194.924C335.344 195.351 335.141 195.943 335.141 196.7V201.132C335.141 201.239 335.104 201.329 335.029 201.404C334.965 201.468 334.88 201.5 334.773 201.5H334.037ZM346.668 201.66C345.58 201.66 344.711 201.324 344.06 200.652C343.409 199.969 343.052 199.041 342.988 197.868L342.972 197.324L342.988 196.796C343.052 195.644 343.409 194.727 344.06 194.044C344.711 193.361 345.58 193.02 346.668 193.02C347.841 193.02 348.748 193.393 349.388 194.14C350.039 194.887 350.364 195.9 350.364 197.18V197.468C350.364 197.575 350.327 197.665 350.252 197.74C350.188 197.804 350.103 197.836 349.996 197.836H344.444V197.98C344.476 198.673 344.689 199.265 345.084 199.756C345.479 200.247 346.001 200.492 346.652 200.492C347.153 200.492 347.559 200.396 347.868 200.204C348.188 200.001 348.428 199.793 348.588 199.58C348.684 199.452 348.759 199.377 348.812 199.356C348.865 199.324 348.956 199.308 349.084 199.308H349.788C349.884 199.308 349.964 199.335 350.028 199.388C350.103 199.441 350.14 199.511 350.14 199.596C350.14 199.831 349.996 200.113 349.708 200.444C349.42 200.775 349.009 201.063 348.476 201.308C347.953 201.543 347.351 201.66 346.668 201.66ZM348.908 196.748V196.7C348.908 195.953 348.705 195.345 348.3 194.876C347.895 194.407 347.351 194.172 346.668 194.172C345.975 194.172 345.431 194.407 345.036 194.876C344.641 195.345 344.444 195.953 344.444 196.7V196.748H348.908ZM357.15 201.5C357.043 201.5 356.953 201.468 356.878 201.404C356.814 201.329 356.782 201.239 356.782 201.132V194.412H355.406C355.299 194.412 355.209 194.38 355.134 194.316C355.07 194.252 355.038 194.167 355.038 194.06V193.548C355.038 193.441 355.07 193.356 355.134 193.292C355.209 193.217 355.299 193.18 355.406 193.18H356.782V192.38C356.782 191.516 356.99 190.849 357.406 190.38C357.833 189.9 358.526 189.66 359.486 189.66H360.43C360.537 189.66 360.622 189.697 360.686 189.772C360.761 189.836 360.798 189.921 360.798 190.028V190.54C360.798 190.647 360.761 190.732 360.686 190.796C360.622 190.86 360.537 190.892 360.43 190.892H359.518C359.027 190.892 358.686 191.02 358.494 191.276C358.302 191.532 358.206 191.927 358.206 192.46V193.18H360.27C360.377 193.18 360.462 193.217 360.526 193.292C360.601 193.356 360.638 193.441 360.638 193.548V194.06C360.638 194.167 360.601 194.252 360.526 194.316C360.462 194.38 360.377 194.412 360.27 194.412H358.206V201.132C358.206 201.239 358.169 201.329 358.094 201.404C358.03 201.468 357.945 201.5 357.838 201.5H357.15ZM365.163 201.66C364.15 201.66 363.366 201.335 362.811 200.684C362.257 200.023 361.979 199.148 361.979 198.06V193.548C361.979 193.441 362.011 193.356 362.075 193.292C362.15 193.217 362.241 193.18 362.347 193.18H363.083C363.19 193.18 363.275 193.217 363.339 193.292C363.414 193.356 363.451 193.441 363.451 193.548V197.98C363.451 199.601 364.155 200.412 365.563 200.412C366.246 200.412 366.785 200.199 367.179 199.772C367.585 199.335 367.787 198.737 367.787 197.98V193.548C367.787 193.441 367.819 193.356 367.883 193.292C367.958 193.217 368.049 193.18 368.155 193.18H368.891C368.998 193.18 369.083 193.217 369.147 193.292C369.222 193.356 369.259 193.441 369.259 193.548V201.132C369.259 201.239 369.222 201.329 369.147 201.404C369.083 201.468 368.998 201.5 368.891 201.5H368.203C368.097 201.5 368.006 201.468 367.931 201.404C367.867 201.329 367.835 201.239 367.835 201.132V200.412C367.526 200.828 367.163 201.143 366.747 201.356C366.331 201.559 365.803 201.66 365.163 201.66ZM372.021 201.5C371.914 201.5 371.824 201.468 371.749 201.404C371.685 201.329 371.653 201.239 371.653 201.132V193.548C371.653 193.441 371.685 193.356 371.749 193.292C371.824 193.217 371.914 193.18 372.021 193.18H372.709C372.826 193.18 372.917 193.212 372.981 193.276C373.045 193.34 373.077 193.431 373.077 193.548V194.252C373.397 193.857 373.765 193.553 374.181 193.34C374.608 193.127 375.136 193.02 375.765 193.02C376.789 193.02 377.584 193.351 378.149 194.012C378.714 194.663 378.997 195.527 378.997 196.604V201.132C378.997 201.239 378.96 201.329 378.885 201.404C378.821 201.468 378.736 201.5 378.629 201.5H377.893C377.786 201.5 377.696 201.468 377.621 201.404C377.557 201.329 377.525 201.239 377.525 201.132V196.7C377.525 195.932 377.338 195.335 376.965 194.908C376.592 194.481 376.058 194.268 375.365 194.268C374.682 194.268 374.138 194.487 373.733 194.924C373.328 195.351 373.125 195.943 373.125 196.7V201.132C373.125 201.239 373.088 201.329 373.013 201.404C372.949 201.468 372.864 201.5 372.757 201.5H372.021ZM381.565 201.5C381.459 201.5 381.368 201.468 381.293 201.404C381.229 201.329 381.197 201.239 381.197 201.132V200.028C381.197 199.921 381.229 199.831 381.293 199.756C381.368 199.681 381.459 199.644 381.565 199.644H382.669C382.776 199.644 382.861 199.681 382.925 199.756C383 199.831 383.037 199.921 383.037 200.028V201.132C383.037 201.239 383 201.329 382.925 201.404C382.861 201.468 382.776 201.5 382.669 201.5H381.565Z" fill="#4F5665"></path></g><defs><filter id="filter0_d" x="0" y="0" width="1180" height="273" filterUnits="userSpaceOnUse" color-interpolation-filters="sRGB"><feGaussianBlur stdDeviation="10"></feGaussianBlur></filter></defs></svg>