<svg xmlns="http://www.w3.org/2000/svg" width="253" height="253" viewBox="0 0 253 253" fill="none"><path d="M164.45 75.9002C164.45 85.9652 160.452 95.6179 153.335 102.735C146.218 109.852 136.565 113.85 126.5 113.85C116.435 113.85 106.783 109.852 99.6656 102.735C92.5486 95.6179 88.5503 85.9652 88.5503 75.9002C88.5503 65.8352 92.5486 56.1825 99.6656 49.0655C106.783 41.9485 116.435 37.9502 126.5 37.9502C136.565 37.9502 146.218 41.9485 153.335 49.0655C160.452 56.1825 164.45 65.8352 164.45 75.9002V75.9002ZM227.7 101.2C227.7 107.91 225.035 114.345 220.29 119.09C215.545 123.835 209.11 126.5 202.4 126.5C195.69 126.5 189.255 123.835 184.51 119.09C179.766 114.345 177.1 107.91 177.1 101.2C177.1 94.4902 179.766 88.0551 184.51 83.3104C189.255 78.5657 195.69 75.9002 202.4 75.9002C209.11 75.9002 215.545 78.5657 220.29 83.3104C225.035 88.0551 227.7 94.4902 227.7 101.2V101.2ZM177.1 189.75C177.1 176.33 171.769 163.46 162.28 153.971C152.791 144.481 139.92 139.15 126.5 139.15C113.08 139.15 100.21 144.481 90.7207 153.971C81.2313 163.46 75.9003 176.33 75.9003 189.75V227.7H177.1V189.75ZM75.9003 101.2C75.9003 107.91 73.2347 114.345 68.4901 119.09C63.7454 123.835 57.3102 126.5 50.6003 126.5C43.8903 126.5 37.4551 123.835 32.7105 119.09C27.9658 114.345 25.3003 107.91 25.3003 101.2C25.3003 94.4902 27.9658 88.0551 32.7105 83.3104C37.4551 78.5657 43.8903 75.9002 50.6003 75.9002C57.3102 75.9002 63.7454 78.5657 68.4901 83.3104C73.2347 88.0551 75.9003 94.4902 75.9003 101.2V101.2ZM202.4 227.7V189.75C202.419 176.889 199.153 164.236 192.913 152.989C198.521 151.554 204.383 151.419 210.052 152.594C215.72 153.768 221.046 156.223 225.622 159.769C230.198 163.315 233.903 167.859 236.456 173.055C239.008 178.251 240.34 183.961 240.35 189.75V227.7H202.4ZM60.0878 152.989C53.8481 164.236 50.5825 176.889 50.6003 189.75V227.7H12.6503V189.75C12.6478 183.957 13.9717 178.24 16.5205 173.038C19.0693 167.835 22.7752 163.286 27.3544 159.737C31.9336 156.188 37.2644 153.735 42.9383 152.566C48.6122 151.396 54.4785 151.541 60.0878 152.989V152.989Z" fill="#0F9EEF"></path></svg>