<svg xmlns="http://www.w3.org/2000/svg" width="2518" height="2518" viewBox="0 0 2518 2518" fill="none"><g opacity="0.05"><g clip-path="url(#clip0)"><path d="M51.7395 2518H905.445C1310.26 2518 1638.42 2189.83 1638.42 1785.02H784.719C379.906 1785.02 51.7395 2113.19 51.7395 2518Z" fill="white"></path><path d="M51.7395 776.095V1854.01C456.553 1854.01 784.719 1525.84 784.719 1121.03V43.116C379.906 43.116 51.7395 371.282 51.7395 776.095Z" fill="white"></path><path d="M2466.26 0H1612.55C1207.74 0 879.575 328.166 879.575 732.979H1733.28C2138.09 732.979 2466.26 404.813 2466.26 0Z" fill="white"></path><path d="M2466.26 1741.9V663.993C2061.45 663.993 1733.28 992.159 1733.28 1396.97V2474.88C2138.09 2474.88 2466.26 2146.72 2466.26 1741.9Z" fill="white"></path></g></g><defs><clipPath id="clip0"><rect width="2518" height="2518" fill="white"></rect></clipPath></defs></svg>